<svg width="76" height="66" viewBox="0 0 76 66" fill="none" xmlns="http://www.w3.org/2000/svg">
<path d="M45.521 16.7308C43.8619 15.1161 41.6333 14.212 39.3125 14.212C36.9918 14.212 34.7632 15.1161 33.1041 16.7308C32.291 17.539 31.6465 18.4993 31.2078 19.5563C30.7692 20.6133 30.5449 21.7462 30.5481 22.8898C30.5512 24.0334 30.7816 25.1651 31.226 26.2198C31.6705 27.2744 32.3202 28.2312 33.1377 29.035C34.792 30.6692 37.0265 31.5896 39.3577 31.5969C41.6889 31.6042 43.9292 30.6978 45.5938 29.074C45.6553 29.0127 45.8961 28.7509 46.3215 28.2831L42.1788 24.1891C41.7534 24.6792 41.5294 24.9355 41.5015 24.9577C40.9392 25.5142 40.1784 25.8266 39.3853 25.8266C38.5923 25.8266 37.8315 25.5142 37.2692 24.9577C36.7112 24.4125 36.3936 23.6691 36.3862 22.891C36.3789 22.1128 36.6824 21.3636 37.23 20.808C37.7952 20.2661 38.5513 19.9661 39.3362 19.9724C40.1211 19.9786 40.8723 20.2906 41.4287 20.8415L52.502 31.7755C50.9723 33.9525 48.939 35.7316 46.5733 36.9628C44.2077 38.1939 41.5792 38.841 38.9095 38.8494C36.105 38.8504 33.3469 38.137 30.8979 36.7773C28.4488 35.4176 26.3903 33.4569 24.9184 31.0817C23.4464 28.7065 22.61 25.996 22.4887 23.2082C22.3674 20.4204 22.9654 17.6482 24.2256 15.1553C25.4858 12.6625 27.3663 10.5321 29.6881 8.967C32.0099 7.40187 34.6958 6.45409 37.4899 6.2139C40.284 5.97372 43.0934 6.44912 45.6506 7.59485C48.2078 8.74057 50.4277 10.5185 52.0989 12.7593C51.6137 13.3237 50.3653 14.7293 48.3537 16.9758L52.4572 20.9919L59.2198 13.4444C57.5849 9.80534 54.9933 6.6726 51.7184 4.37655C48.4435 2.0805 44.6066 0.706211 40.6122 0.398591C36.6179 0.0909702 32.6141 0.861417 29.0231 2.62869C25.4321 4.39597 22.3868 7.09459 20.2085 10.44C18.0302 13.7854 16.7995 17.6537 16.6462 21.6369C16.4929 25.6201 17.4226 29.5707 19.3374 33.0721C21.2522 36.5735 24.081 39.4959 27.5257 41.5313C30.9704 43.5666 34.9032 44.6395 38.9095 44.6367C44.5077 44.6367 49.1374 42.9044 53.6664 39.0667C56.2705 36.7843 58.3417 33.9632 59.7349 30.8007L45.521 16.7308Z" fill="url(#paint0_linear_611_4566)"/>
<path d="M47.7626 58.6561V65.6468H44.8709V58.5052C44.711 57.6822 44.2672 56.9412 43.6168 56.4111C42.9664 55.8811 42.1505 55.5956 41.3112 55.6044C40.4718 55.6131 39.662 55.9156 39.0229 56.459C38.3837 57.0025 37.9555 57.7526 37.8128 58.5788V65.6615H34.9211V52.9495L37.1314 54.3402C38.3083 53.3463 39.8006 52.8025 41.3419 52.806C42.9537 52.7921 44.5111 53.3873 45.7019 54.4722C46.8927 55.5572 47.6288 57.0517 47.7626 58.6561ZM17.427 51.3379C16.4716 51.8288 15.613 52.4882 14.8926 53.2843C14.316 52.4591 13.5361 51.7965 12.6281 51.3604C11.7202 50.9242 10.715 50.7294 9.70966 50.7947C8.70432 50.86 7.73284 51.1831 6.88908 51.733C6.04533 52.2828 5.35783 53.0407 4.89304 53.9335C4.42824 54.8263 4.20186 55.8237 4.23577 56.8294C4.26968 57.8351 4.56273 58.815 5.0866 59.6745C5.61048 60.534 6.34746 61.244 7.22634 61.7359C8.10522 62.2278 9.09628 62.485 10.1037 62.4826C11.1186 62.491 12.1185 62.2375 13.0065 61.7467C13.3216 62.7669 13.821 63.7208 14.48 64.5614C13.1342 65.2897 11.627 65.6693 10.0964 65.6652C8.90045 65.6894 7.71172 65.475 6.59979 65.0346C5.48785 64.5942 4.47507 63.9366 3.62073 63.1004C2.7664 62.2642 2.0877 61.2662 1.62436 60.1647C1.16102 59.0633 0.922363 57.8805 0.922363 56.6858C0.922363 55.4911 1.16102 54.3084 1.62436 53.2069C2.0877 52.1054 2.7664 51.1074 3.62073 50.2712C4.47507 49.435 5.48785 48.7774 6.59979 48.337C7.71172 47.8966 8.90045 47.6822 10.0964 47.7064C11.5131 47.7033 12.9111 48.0302 14.1792 48.6613C15.4472 49.2923 16.5505 50.2101 17.4012 51.3416L17.427 51.3379ZM21.7259 65.6615C20.4738 65.647 19.254 65.2629 18.22 64.5575C17.186 63.8522 16.3839 62.8571 15.9148 61.6975C15.4457 60.5379 15.3304 59.2656 15.5836 58.0408C15.8368 56.8159 16.447 55.6932 17.3375 54.814C18.228 53.9348 19.359 53.3382 20.5882 53.0995C21.8174 52.8608 23.0898 52.9906 24.2453 53.4725C25.4007 53.9544 26.3877 54.7669 27.0819 55.8078C27.7762 56.8487 28.1466 58.0714 28.1467 59.322C28.1419 60.1594 27.972 60.9876 27.6467 61.7594C27.3214 62.5311 26.8471 63.2313 26.2509 63.82C25.6547 64.4087 24.9482 64.8743 24.1718 65.1903C23.3954 65.5062 22.5643 65.6664 21.7259 65.6615ZM21.7259 62.8432C22.4212 62.8344 23.0984 62.6206 23.6723 62.2284C24.2462 61.8362 24.6912 61.2833 24.9512 60.6392C25.2113 59.9951 25.2748 59.2885 25.1339 58.6084C24.9929 57.9284 24.6537 57.3051 24.1589 56.8171C23.6642 56.329 23.036 55.998 22.3534 55.8657C21.6708 55.7334 20.9642 55.8056 20.3226 56.0734C19.681 56.3412 19.133 56.7924 18.7476 57.3705C18.3621 57.9485 18.1565 58.6275 18.1564 59.322C18.1588 59.7875 18.2531 60.2479 18.4339 60.6769C18.6147 61.1059 18.8784 61.495 19.21 61.8221C19.5415 62.1492 19.9344 62.4077 20.3661 62.5829C20.7979 62.7581 21.26 62.8465 21.7259 62.8432ZM29.9333 52.9863H32.7882V65.6615H29.9333V52.9863ZM60.9725 50.7419H52.8094V55.3484H60.7368V58.2072H52.8094V62.799H60.9725V65.6615H49.7334V47.8794H60.9725V50.7419ZM66.977 59.2963L62.5823 52.9863H66.2145C66.3213 53.1629 66.4797 53.4057 66.686 53.7221L68.1853 55.9775C68.4247 56.3455 68.5942 56.603 68.6937 56.776L68.841 57.0262L71.4528 52.9973H74.9118L70.6018 59.1896L75.0776 65.6615H71.4896L68.7231 61.5186L68.5721 61.7357C68.4505 61.9123 68.27 62.1882 68.0269 62.5598C67.7838 62.9315 67.5296 63.3251 67.2533 63.7372L66.476 64.922C66.2697 65.2384 66.1077 65.4849 66.0082 65.6578H62.5786L66.977 59.2963Z" fill="#1B2125"/>
<path d="M29.6561 50.3565C29.6545 50.1047 29.7047 49.8553 29.8035 49.6237C29.9024 49.392 30.0478 49.1831 30.2307 49.0099C30.5998 48.6448 31.0982 48.4399 31.6177 48.4399C32.1371 48.4399 32.6356 48.6448 33.0046 49.0099C33.1917 49.1832 33.34 49.3941 33.4396 49.6287C33.5393 49.8634 33.5882 50.1164 33.583 50.3712C33.58 50.8875 33.3727 51.3816 33.0061 51.7456C32.6396 52.1096 32.1438 52.3139 31.6269 52.3139C31.368 52.3182 31.1108 52.2703 30.8709 52.1729C30.631 52.0755 30.4133 51.9308 30.2307 51.7473C30.0446 51.5672 29.8975 51.3508 29.7987 51.1116C29.6998 50.8723 29.6513 50.6153 29.6561 50.3565Z" fill="url(#paint1_linear_611_4566)"/>
<defs>
<linearGradient id="paint0_linear_611_4566" x1="59.0815" y1="23.7689" x2="16.0024" y2="23.7689" gradientUnits="userSpaceOnUse">
<stop stop-color="#22E6B8"/>
<stop offset="1" stop-color="#00C1CE"/>
</linearGradient>
<linearGradient id="paint1_linear_611_4566" x1="33.2935" y1="49.629" x2="29.3695" y2="49.629" gradientUnits="userSpaceOnUse">
<stop stop-color="#22E6B8"/>
<stop offset="1" stop-color="#00C1CE"/>
</linearGradient>
</defs>
</svg>
