<svg width="50" height="48" viewBox="0 0 50 48" fill="none" xmlns="http://www.w3.org/2000/svg">
<path d="M49.4179 31.4797L42.7584 17.5139C42.7238 17.4414 42.6752 17.3764 42.6154 17.3228C42.5556 17.2691 42.4859 17.2277 42.4101 17.2011C42.2577 17.1472 42.0891 17.1564 41.9429 17.2275L36.7998 19.7137C36.4981 19.86 36.3701 20.2215 36.5154 20.5242L37.1319 21.8171C36.3163 21.8729 35.2651 21.7683 34.0951 21.5937C37.1359 17.1412 36.8993 12.3291 36.5479 5.25631L36.5428 5.14764C36.536 5.0085 36.4817 4.87592 36.3889 4.77203C36.2961 4.66814 36.1704 4.59925 36.033 4.57686C33.7945 4.21021 32.3137 2.95287 31.5073 0.732715C31.4645 0.615163 31.3866 0.513619 31.2841 0.441855C31.1817 0.370091 31.0596 0.331579 30.9345 0.331543H19.068C18.812 0.331543 18.5825 0.492012 18.4951 0.732715C17.6877 2.95287 16.2069 4.21021 13.9695 4.57686C13.8321 4.59942 13.7066 4.66837 13.6138 4.77222C13.521 4.87607 13.4667 5.00856 13.4597 5.14764L13.4546 5.25732C13.0402 13.5976 12.7883 18.693 17.7212 23.8057C17.6796 23.9225 17.641 24.0403 17.6065 24.1632C16.3075 24.4262 14.5921 24.2454 13.5023 23.4086L13.7268 22.9597C13.7989 22.8144 13.8111 22.6469 13.7593 22.4925C13.7074 22.3389 13.5967 22.2122 13.4515 22.1401L8.32975 19.6101C8.18542 19.5389 8.01876 19.5276 7.86615 19.5788C7.71354 19.63 7.58738 19.7395 7.51522 19.8833L0.587641 33.7172C0.551804 33.7891 0.530489 33.8674 0.524912 33.9475C0.519336 34.0277 0.529608 34.1082 0.555141 34.1844C0.607035 34.3379 0.717699 34.4647 0.862876 34.5368L5.98467 37.0667C6.071 37.1094 6.16342 37.1297 6.25381 37.1297C6.47725 37.1297 6.69256 37.0058 6.7992 36.7925L6.95459 36.4827L8.67811 37.539L8.1317 38.6216C7.49186 39.8901 8.00374 41.442 9.27225 42.0819C9.62968 42.2625 10.0245 42.3568 10.425 42.3571C10.5113 42.3571 10.5987 42.351 10.685 42.3419C10.2584 43.5454 10.7845 44.9104 11.9535 45.5004C12.3109 45.6811 12.7058 45.7753 13.1062 45.7757C13.3784 45.7757 13.6526 45.732 13.9187 45.6447C14.2021 45.5512 14.4611 45.4101 14.6896 45.2333C14.9301 45.7681 15.3476 46.2036 15.8718 46.4663C16.2292 46.6469 16.624 46.7412 17.0245 46.7415C17.2967 46.7415 17.5709 46.6979 17.837 46.6105C18.1326 46.513 18.3997 46.3647 18.6353 46.1779C18.878 46.704 19.2853 47.1305 19.8083 47.3946C20.1658 47.5752 20.5606 47.6695 20.9611 47.6698C21.2333 47.6698 21.5075 47.6262 21.7736 47.5388C22.3944 47.3358 22.914 46.903 23.2259 46.3292L24.6407 47.2026C25.0612 47.4626 25.5283 47.5865 25.9905 47.5865C26.8548 47.5865 27.6998 47.1519 28.1873 46.3647C28.3589 46.0865 28.4737 45.7828 28.5295 45.469C28.8423 45.6 29.1755 45.668 29.5137 45.668C29.7161 45.6678 29.9178 45.6443 30.1149 45.5979C30.7862 45.4395 31.354 45.0302 31.7145 44.4462C31.9765 44.0227 32.0994 43.5515 32.0974 43.0873L32.1055 43.0924C32.526 43.3524 32.9932 43.4763 33.4553 43.4763C34.3196 43.4763 35.1656 43.0416 35.6521 42.2545C35.908 41.8401 36.037 41.3719 36.035 40.8946L36.3976 41.119C36.818 41.379 37.2852 41.5029 37.7473 41.5029C38.6116 41.5029 39.4566 41.0683 39.9441 40.2812C40.3047 39.6972 40.4154 39.0065 40.2569 38.3352C40.1107 37.7177 39.7522 37.1876 39.2342 36.8219C39.9797 35.1878 41.1283 34.1122 42.7259 33.5496L43.1738 34.489C43.2235 34.5929 43.3015 34.6807 43.3989 34.7422C43.4963 34.8036 43.6091 34.8363 43.7243 34.8364C43.8157 34.8364 43.9061 34.8161 43.9894 34.7754L49.1325 32.2892C49.2775 32.2195 49.3889 32.0952 49.4424 31.9434C49.4959 31.7917 49.4871 31.625 49.4179 31.4797ZM14.653 5.68389C16.9321 5.17303 18.5551 3.78467 19.4854 1.54826H30.5171C31.4474 3.78365 33.0704 5.17303 35.3494 5.68389C35.7019 12.7943 35.8623 17.2021 32.7545 21.3743C32.3188 21.2991 31.874 21.2189 31.4251 21.1376C31.294 21.1143 31.161 21.0899 31.028 21.0665C34.2383 17.3879 34.0525 13.6261 33.7569 7.67146L33.7529 7.59021C33.7461 7.45108 33.6918 7.3185 33.599 7.21461C33.5062 7.11072 33.3805 7.04183 33.243 7.01943C31.6363 6.75639 30.573 5.85248 29.993 4.25592C29.9502 4.13837 29.8723 4.03682 29.7699 3.96506C29.6674 3.89329 29.5453 3.85478 29.4202 3.85475H20.5823C20.3263 3.85475 20.0968 4.01521 20.0094 4.25592C19.4295 5.85146 18.3662 6.75537 16.7594 7.01943C16.622 7.042 16.4965 7.11095 16.4037 7.2148C16.311 7.31865 16.2566 7.45114 16.2496 7.59021L16.2455 7.67146C15.9388 13.8505 15.7489 17.6916 19.3848 21.5175C18.9625 21.8289 18.5961 22.2098 18.3012 22.6438C14.1056 18.0887 14.263 13.5529 14.653 5.68389ZM20.4817 20.8969C17.0601 17.4458 17.1505 14.0476 17.443 8.12342C19.1005 7.7192 20.2918 6.69647 20.9956 5.07451H29.0058C29.7087 6.69647 30.901 7.7192 32.5585 8.12342C32.85 14.0242 32.9394 17.393 29.598 20.8167C27.3798 20.4419 25.0622 20.1383 23.0797 20.3008C22.0864 20.381 21.2201 20.5811 20.4817 20.8969ZM5.98163 35.7047L1.95264 33.7141L8.3328 20.968L12.3618 22.9587L5.98163 35.7047ZM9.82069 40.9951C9.15241 40.6579 8.88225 39.8404 9.21944 39.1711L10.0177 37.5877C10.1802 37.2658 10.4595 37.0261 10.8058 36.9123C11.1522 36.7986 11.5198 36.825 11.8418 36.9875C12.5101 37.3247 12.7792 38.1412 12.443 38.8095L11.6437 40.3949C11.4812 40.7169 11.2019 40.9565 10.8556 41.0703C10.5103 41.184 10.1426 41.1576 9.82069 40.9951ZM13.5379 44.4889C13.1915 44.6026 12.8239 44.5762 12.5019 44.4137C11.8337 44.0765 11.5635 43.259 11.9007 42.5897L13.5308 39.3579L13.5318 39.3559L14.3615 37.7096C14.6002 37.2363 15.0796 36.9631 15.5762 36.9631C15.7814 36.9631 15.9896 37.0098 16.1856 37.1083C16.8539 37.4455 17.1241 38.2631 16.7869 38.9324L14.7323 43.0071L14.7312 43.0091L14.326 43.8125C14.1645 44.1354 13.8842 44.3751 13.5379 44.4889ZM17.4572 45.4558C17.1108 45.5695 16.7432 45.5431 16.4212 45.3806C16.0993 45.2181 15.8596 44.9388 15.7448 44.5925C15.6311 44.2472 15.6575 43.8795 15.819 43.5586L17.4683 40.2872C17.6308 39.9653 17.9101 39.7256 18.2565 39.6108C18.6028 39.4971 18.9705 39.5235 19.2924 39.686C19.9607 40.0232 20.2308 40.8408 19.8937 41.5101L18.6698 43.9374L18.2453 44.7804C18.0828 45.1013 17.8025 45.342 17.4572 45.4558ZM21.3948 46.384C21.0484 46.4978 20.6808 46.4714 20.3588 46.3089C20.0369 46.1464 19.7972 45.8671 19.6824 45.5208C19.5687 45.1754 19.5951 44.8078 19.7565 44.4858L20.5558 42.9015C20.7183 42.5795 20.9976 42.3398 21.344 42.2261C21.6893 42.1123 22.058 42.1387 22.3799 42.3012C22.7019 42.4637 22.9415 42.743 23.0563 43.0894C23.1701 43.4357 23.1437 43.8033 22.9812 44.1253L22.1829 45.7086C22.0204 46.0296 21.7411 46.2703 21.3948 46.384ZM38.9082 39.6423C38.5151 40.2791 37.6762 40.4772 37.0394 40.0841L34.0687 38.2499L33.3344 37.7969C33.197 37.715 33.0329 37.6903 32.8775 37.7283C32.722 37.7663 32.5878 37.8639 32.5036 38C32.4195 38.1361 32.3923 38.2998 32.4278 38.4558C32.4634 38.6118 32.5588 38.7476 32.6936 38.8339L34.1744 39.7479C34.4811 39.9369 34.6964 40.2365 34.7797 40.5909C34.863 40.9454 34.8051 41.309 34.6162 41.6157C34.2231 42.2525 33.3852 42.4505 32.7474 42.0575L30.8787 40.9037L30.8766 40.9027H30.8756L29.9483 40.3299C29.8109 40.2479 29.6468 40.2233 29.4914 40.2613C29.3359 40.2993 29.2017 40.3969 29.1175 40.533C29.0334 40.6691 29.0062 40.8328 29.0417 40.9888C29.0773 41.1448 29.1727 41.2806 29.3075 41.3669L30.2368 41.9407C30.8726 42.3347 31.0706 43.1716 30.6776 43.8084C30.4887 44.1151 30.1891 44.3304 29.8346 44.4137C29.4801 44.497 29.1166 44.4391 28.8098 44.2502L26.5633 42.8629C26.4258 42.7809 26.2617 42.7563 26.1063 42.7943C25.9509 42.8322 25.8166 42.9298 25.7325 43.0659C25.6484 43.202 25.6211 43.3658 25.6567 43.5218C25.6922 43.6778 25.7876 43.8136 25.9224 43.8998L27.326 44.7661C27.388 45.0972 27.328 45.4375 27.1503 45.7259C26.7573 46.3627 25.9183 46.5608 25.2815 46.1677L23.7805 45.2415L24.0679 44.6727C24.3766 44.0603 24.4284 43.3615 24.2121 42.7075C23.9958 42.0524 23.5398 41.5212 22.9273 41.2125C22.4107 40.9508 21.8205 40.8727 21.2536 40.9911C21.2871 40.0171 20.7651 39.0644 19.8398 38.5983C19.3178 38.334 18.7209 38.257 18.1488 38.3799C18.1691 37.4181 17.6481 36.4827 16.733 36.0216C15.564 35.4326 14.1544 35.8215 13.4394 36.8788C13.1976 36.4726 12.8412 36.1272 12.3882 35.8987C11.7758 35.59 11.078 35.5382 10.423 35.7545C9.98969 35.8966 9.60225 36.1519 9.30069 36.4939L7.49999 35.3899L12.9458 24.5105C13.9421 25.192 15.233 25.4916 16.4537 25.4916C16.6924 25.4916 16.928 25.4804 17.1576 25.4581C17.0601 25.6562 16.9473 25.8501 16.8163 26.0502L14.259 29.937C14.1645 30.0812 14.1351 30.2579 14.1777 30.4245C14.2204 30.5911 14.3321 30.7312 14.4844 30.8115C15.562 31.3772 16.5208 31.6554 17.4155 31.6554C17.9101 31.6554 18.3855 31.5701 18.8506 31.4005C20.0897 30.9496 21.1977 29.9147 22.3078 28.1678L38.4623 37.7746C39.1032 38.1666 39.3012 39.0055 38.9082 39.6423ZM38.1871 36.1902L30.7812 31.7854C32.0121 31.6209 33.044 30.9323 33.7123 29.7562C33.8788 29.4637 33.7762 29.092 33.4837 28.9254C33.1912 28.7589 32.8195 28.8615 32.653 29.154C31.7887 30.6754 30.1596 31.0247 28.1852 30.1147C28.0867 30.069 27.9821 30.0528 27.8805 30.0609L22.4175 26.8119L22.4165 26.8109C22.2772 26.7288 22.111 26.7054 21.9545 26.7458C21.7979 26.7861 21.6638 26.887 21.5816 27.0262C19.4854 30.5789 17.7182 30.9161 15.6615 30.0233L17.836 26.7185C18.2666 26.0644 18.5419 25.4317 18.7308 24.6659C19.8114 20.2835 25.8655 21.3743 31.2067 22.3361C33.8128 22.8053 36.0969 23.2156 37.6854 22.979L42.1988 32.4456C40.3991 33.1149 39.0534 34.3712 38.1871 36.1902ZM44.0107 33.4125L38.5761 22.0151L37.8763 20.5465L41.9226 18.5915L48.0569 31.4574L44.0107 33.4125ZM23.1579 18.0532L20.241 15.1363C20.0033 14.8987 20.0033 14.5127 20.241 14.274C20.3553 14.1599 20.5101 14.0958 20.6716 14.0958C20.8331 14.0958 20.988 14.1599 21.1023 14.274L23.5885 16.7603L28.8972 11.4516C29.1348 11.214 29.5208 11.214 29.7584 11.4516C29.9961 11.6893 29.9961 12.0752 29.7584 12.3139L24.0191 18.0532C23.9626 18.1098 23.8955 18.1547 23.8216 18.1854C23.7477 18.216 23.6685 18.2318 23.5885 18.2318C23.5085 18.2318 23.4293 18.216 23.3554 18.1854C23.2815 18.1547 23.2144 18.1098 23.1579 18.0532Z" fill="#4C9DE8"/>
</svg>
