<svg width="46" height="46" viewBox="0 0 46 46" fill="none" xmlns="http://www.w3.org/2000/svg">
<g clip-path="url(#clip0_611_4240)">
<path d="M23.0013 0.717285C18.4269 0.720883 14.0409 2.53985 10.8065 5.77473C7.57213 9.0096 5.75385 13.3959 5.75098 17.9703C5.75314 22.5448 7.57127 26.9312 10.8059 30.1658C14.0405 33.4004 18.4269 35.2185 23.0013 35.2207C27.5757 35.2185 31.9622 33.4004 35.1968 30.1658C38.4314 26.9312 40.2495 22.5448 40.2517 17.9703C40.2488 13.3954 38.4301 9.00872 35.1952 5.77377C31.9602 2.53882 27.5735 0.720164 22.9986 0.717285H23.0013ZM23.0013 2.15436C25.0782 2.15365 27.135 2.56229 29.0539 3.35693C30.9728 4.15157 32.7162 5.31663 34.1846 6.78549C35.6529 8.25435 36.8174 9.99822 37.6114 11.9174C38.4054 13.8366 38.8133 15.8934 38.8119 17.9703C38.8119 26.7123 31.7433 33.7809 23.0013 33.7809C14.2593 33.7809 7.19077 26.7123 7.19077 17.9703C7.18934 15.8936 7.59719 13.837 8.391 11.918C9.18481 9.99902 10.349 8.25528 11.8171 6.78645C13.2852 5.31762 15.0283 4.15251 16.9469 3.35771C18.8655 2.56291 20.9219 2.154 22.9986 2.15436H23.0013Z" fill="#4C9DE8"/>
<path d="M2.66235 39.5401L9.41307 27.8506L10.6573 28.5705L4.70251 38.8772L10.6464 37.7064C10.8168 37.6734 10.9934 37.703 11.1436 37.7899C11.2939 37.8767 11.4077 38.0149 11.4641 38.1791L13.4146 43.9111L19.2363 33.8325L20.4832 34.5551L13.8683 46.0083C13.799 46.1278 13.6969 46.2248 13.574 46.2879C13.4511 46.3509 13.3127 46.3773 13.1752 46.3638C13.0378 46.3504 12.9071 46.2977 12.7988 46.212C12.6904 46.1263 12.6091 46.0113 12.5643 45.8806L10.3041 39.2413L3.42843 40.5996C3.29346 40.6261 3.15372 40.6133 3.02575 40.5629C2.89779 40.5125 2.78695 40.4264 2.70635 40.315C2.62576 40.2035 2.57878 40.0713 2.57098 39.934C2.56318 39.7966 2.59489 39.66 2.66235 39.5401Z" fill="#4C9DE8"/>
<path d="M35.3483 28.5732L36.5898 27.8506L43.3378 39.5401C43.4053 39.66 43.437 39.7966 43.4292 39.934C43.4214 40.0713 43.3744 40.2035 43.2938 40.315C43.2132 40.4264 43.1024 40.5125 42.9744 40.5629C42.8465 40.6133 42.7067 40.6261 42.5718 40.5996L35.6988 39.2413L33.4359 45.8806C33.3911 46.0113 33.3097 46.1263 33.2014 46.212C33.0931 46.2977 32.9624 46.3504 32.825 46.3638C32.6875 46.3773 32.5491 46.3509 32.4262 46.2879C32.3033 46.2248 32.2011 46.1278 32.1319 46.0083L25.5197 34.5579L26.7694 33.8352L32.5883 43.9138L34.5415 38.1818C34.5979 38.0177 34.7118 37.8795 34.862 37.7926C35.0123 37.7057 35.1888 37.6761 35.3592 37.7091L41.3004 38.88L35.3483 28.5732Z" fill="#4C9DE8"/>
<path d="M23.0016 9.96436C22.4909 9.96436 22.404 10.1871 22.2682 10.3257C21.4831 11.233 20.4263 13.102 20.0351 13.7214C18.7149 14.0501 17.3104 14.3245 16.1205 14.7917C15.9467 14.8787 15.7103 14.8977 15.55 15.3812C15.3952 15.8675 15.5745 16.0169 15.6641 16.1881C16.2428 17.1579 17.889 18.9807 18.2042 19.361C18.1227 20.809 17.9243 22.1129 18.014 23.4142C18.0412 23.6043 17.9841 23.8353 18.3943 24.1368C18.8072 24.4356 19.011 24.3107 19.2011 24.2781C20.334 24.0064 22.366 23.0991 23.0016 22.8464C24.2784 23.3327 25.5444 23.9548 26.7994 24.2781C26.9896 24.3107 27.1933 24.4356 27.6063 24.1368C28.0192 23.838 27.9594 23.6043 27.9866 23.4142C28.0844 22.2922 27.8317 19.8555 27.7964 19.361C28.5299 18.5026 29.3177 17.5817 30.0104 16.6988C30.4044 16.2696 30.5646 15.8132 30.4505 15.3812C30.3337 14.9493 30.0566 14.8787 29.8828 14.7917C28.6141 14.2892 27.2694 14.0501 25.9682 13.7214C25.2184 12.5804 24.561 11.3254 23.7324 10.3257C23.5966 10.1898 23.5124 9.96436 22.9989 9.96436H23.0016ZM23.0016 11.7111C23.6319 12.632 24.1616 13.5693 24.762 14.4848C24.8598 14.6206 24.8924 14.7157 25.1233 14.8841C25.3542 15.0498 25.4466 15.0498 25.6069 15.1014C26.6799 15.3867 27.7285 15.6203 28.7907 15.9164C28.117 16.8074 27.3835 17.598 26.6989 18.4537C26.5984 18.5895 26.5223 18.6439 26.4327 18.9155C26.3458 19.1872 26.3729 19.2795 26.3757 19.4453C26.43 20.5591 26.5332 21.6294 26.5821 22.7323C25.3868 22.3167 24.1154 21.6457 23.0016 21.4093C22.7164 21.4093 22.6403 21.4664 22.4801 21.518C21.4396 21.9146 20.4508 22.3439 19.4185 22.7296C19.4538 21.6104 19.576 20.5428 19.6276 19.4453C19.6276 19.2795 19.6548 19.1845 19.5679 18.9155C19.4809 18.6439 19.4049 18.5895 19.3017 18.4537C18.6225 17.5953 17.813 16.6825 17.2099 15.9164C18.2829 15.6013 19.337 15.384 20.3964 15.1014C20.5567 15.0498 20.6491 15.0498 20.88 14.8841C21.1082 14.7157 21.1435 14.6206 21.2386 14.4848C21.6189 13.9251 21.9884 13.3003 22.3116 12.7733C22.5306 12.4122 22.7607 12.0579 23.0016 11.7111Z" fill="#4C9DE8"/>
</g>
<defs>
<clipPath id="clip0_611_4240">
<rect width="46" height="46" fill="white"/>
</clipPath>
</defs>
</svg>
