<svg width="25" height="24" viewBox="0 0 25 24" fill="none" xmlns="http://www.w3.org/2000/svg">
<path d="M12.96 3.15527C8.19644 3.15527 4.33496 7.01676 4.33496 11.7803C4.33496 16.5438 8.19644 20.4053 12.96 20.4053C17.7235 20.4053 21.585 16.5438 21.585 11.7803C21.585 7.01676 17.7235 3.15527 12.96 3.15527ZM16.7334 9.68422H16.6283C16.6283 9.68422 16.3138 9.68422 16.3138 9.99867V13.5619C16.3138 13.5619 16.3138 13.8763 16.6283 13.8763H16.7334V14.7155H14.2178V13.8763H14.6373V9.97711H14.5951L13.3103 14.7155H12.1783L10.9052 9.97711H10.8639V13.8763H11.2826V14.7155H9.18652V13.8763H9.29164C9.29164 13.8763 9.60609 13.8763 9.60609 13.5619V9.99777C9.60609 9.99777 9.60609 9.68332 9.29164 9.68332H9.18652V8.84508H11.9681L12.9438 12.4757H12.9761L13.9599 8.84597H16.7334V9.68422Z" fill="url(#paint0_linear_649_1512)"/>
<defs>
<linearGradient id="paint0_linear_649_1512" x1="21.585" y1="3.15527" x2="0.943437" y2="9.68638" gradientUnits="userSpaceOnUse">
<stop stop-color="#000756"/>
<stop offset="1" stop-color="#0042B8"/>
</linearGradient>
</defs>
</svg>
