<svg width="52" height="23" viewBox="0 0 52 23" fill="none" xmlns="http://www.w3.org/2000/svg">
<path d="M0.0600586 21.6739V19.8486H1.41818V20.1575H0.429969V20.5621H1.34956V20.8697H0.429969V21.3664H1.45333V21.6739H0.0600586Z" fill="#10298E"/>
<path d="M1.78223 19.8486H2.13339V20.1722H1.78223V19.8486ZM1.78223 20.3517H2.13339V21.6739H1.78223V20.3517Z" fill="#10298E"/>
<path d="M3.71828 21.6733H3.36711V20.9984C3.36711 20.8557 3.35975 20.7633 3.34469 20.7212C3.32962 20.6795 3.30552 20.6472 3.27171 20.6238C3.2379 20.6005 3.19739 20.5888 3.14986 20.5888C3.08893 20.5888 3.03436 20.6055 2.98616 20.6388C2.93795 20.6719 2.90448 20.7159 2.88673 20.7706C2.86866 20.8253 2.85995 20.9267 2.85995 21.0742V21.6733H2.50879V20.351H2.83485V20.5451C2.95067 20.396 3.09663 20.3213 3.27238 20.3213C3.34971 20.3213 3.42034 20.335 3.48462 20.363C3.54889 20.3907 3.5971 20.4264 3.63024 20.4694C3.66304 20.5124 3.68614 20.5615 3.69886 20.6162C3.71192 20.6709 3.71828 20.7496 3.71828 20.8517V21.6733Z" fill="#10298E"/>
<path d="M4.44198 19.8486V20.5198C4.55513 20.3877 4.69071 20.3216 4.84805 20.3216C4.92873 20.3216 5.0017 20.3366 5.06665 20.3667C5.13159 20.3964 5.18047 20.4347 5.21361 20.4811C5.24641 20.5275 5.26884 20.5792 5.28089 20.6355C5.29294 20.6919 5.29897 20.7796 5.29897 20.8984V21.6739H4.94814V20.9754C4.94814 20.8367 4.94145 20.7489 4.92806 20.7112C4.91467 20.6742 4.89123 20.6445 4.85742 20.6225C4.82361 20.6005 4.78143 20.5895 4.73055 20.5895C4.6723 20.5895 4.62008 20.6035 4.57455 20.6315C4.52869 20.6599 4.49521 20.7026 4.47379 20.7593C4.4527 20.8163 4.44198 20.9004 4.44198 21.0115V21.6739H4.09082V19.8486H4.44198Z" fill="#10298E"/>
<path d="M6.44136 21.2526L6.79118 21.3113C6.74633 21.4391 6.67502 21.5362 6.57828 21.6032C6.4812 21.6699 6.35968 21.7033 6.21406 21.7033C5.98307 21.7033 5.81234 21.6282 5.70154 21.4778C5.61417 21.3577 5.57031 21.2059 5.57031 21.0225C5.57031 20.8033 5.62789 20.6315 5.74305 20.5074C5.85787 20.3833 6.00316 20.3213 6.17891 20.3213C6.37642 20.3213 6.53208 20.3863 6.64623 20.5161C6.76039 20.6462 6.81495 20.845 6.80993 21.1132H5.93018C5.93286 21.2169 5.96098 21.2977 6.01521 21.3554C6.06944 21.4131 6.13706 21.4418 6.21774 21.4418C6.27264 21.4418 6.31884 21.4271 6.35633 21.3971C6.39382 21.367 6.42228 21.319 6.44136 21.2526ZM6.46144 20.899C6.45877 20.7976 6.43266 20.7209 6.38278 20.6682C6.33256 20.6155 6.27197 20.5891 6.20033 20.5891C6.12367 20.5891 6.0604 20.6168 6.01019 20.6725C5.96031 20.7279 5.93587 20.8036 5.93654 20.899H6.46144Z" fill="#10298E"/>
<path d="M7.11426 19.8486H7.46542V20.1722H7.11426V19.8486ZM7.11426 20.3517H7.46542V21.6739H7.11426V20.3517Z" fill="#10298E"/>
<path d="M8.4513 20.3508V20.6297H8.21128V21.1627C8.21128 21.2704 8.21362 21.3335 8.21831 21.3512L8.24944 21.3955L8.30903 21.4129C8.3415 21.4129 8.38836 21.4015 8.44996 21.3792L8.48009 21.6507C8.39841 21.6854 8.30601 21.7028 8.20257 21.7028C8.1393 21.7028 8.08239 21.6924 8.03151 21.6711C7.98063 21.65 7.94347 21.6227 7.9197 21.589C7.89593 21.5553 7.87953 21.5099 7.87016 21.4526C7.86279 21.4122 7.85911 21.3298 7.85911 21.2061V20.6297H7.69775V20.3508H7.85911V20.0879L8.21128 19.8838V20.3508H8.4513Z" fill="#10298E"/>
<path d="M8.71289 19.8486H9.06406V21.6739H8.71289V19.8486Z" fill="#10298E"/>
<path d="M9.44189 19.8486H9.79306V20.1722H9.44189V19.8486ZM9.44189 20.3517H9.79306V21.6739H9.44189V20.3517Z" fill="#10298E"/>
<path d="M11.3279 20.7423L10.9817 20.8046C10.97 20.7356 10.9436 20.6839 10.9024 20.6489C10.8612 20.6142 10.8076 20.5965 10.742 20.5965C10.6543 20.5965 10.5847 20.6268 10.5325 20.6869C10.4806 20.7469 10.4545 20.8477 10.4545 20.9888C10.4545 21.1455 10.4809 21.2566 10.5338 21.3213C10.5867 21.386 10.6577 21.4181 10.7467 21.4181C10.8137 21.4181 10.8679 21.3994 10.9104 21.3617C10.9529 21.324 10.9831 21.259 11.0005 21.1669L11.3453 21.2253C11.3094 21.383 11.2408 21.5021 11.1391 21.5825C11.0376 21.6632 10.9014 21.7033 10.7306 21.7033C10.5365 21.7033 10.3818 21.6422 10.2663 21.5205C10.1512 21.3984 10.0933 21.2296 10.0933 21.0138C10.0933 20.7953 10.1512 20.6255 10.267 20.5038C10.3828 20.3823 10.5395 20.3213 10.737 20.3213C10.8984 20.3213 11.0269 20.356 11.1223 20.4254C11.2177 20.4947 11.2863 20.6002 11.3279 20.7423Z" fill="#10298E"/>
<path d="M11.9615 19.8486V20.5198C12.0747 20.3877 12.2102 20.3216 12.3676 20.3216C12.4483 20.3216 12.5212 20.3366 12.5862 20.3667C12.6511 20.3964 12.7 20.4347 12.7331 20.4811C12.7659 20.5275 12.7884 20.5792 12.8004 20.6355C12.8125 20.6919 12.8185 20.7796 12.8185 20.8984V21.6739H12.4677V20.9754C12.4677 20.8367 12.461 20.7489 12.4476 20.7112C12.4342 20.6742 12.4108 20.6445 12.377 20.6225C12.3431 20.6005 12.301 20.5895 12.2501 20.5895C12.1918 20.5895 12.1396 20.6035 12.0941 20.6315C12.0482 20.6599 12.0144 20.7026 11.9933 20.7593C11.9722 20.8163 11.9615 20.9004 11.9615 21.0115V21.6739H11.6104V19.8486H11.9615Z" fill="#10298E"/>
<path d="M13.961 21.2526L14.3109 21.3113C14.266 21.4391 14.1947 21.5362 14.098 21.6032C14.0009 21.6699 13.8794 21.7033 13.7337 21.7033C13.5028 21.7033 13.332 21.6282 13.2212 21.4778C13.1339 21.3577 13.0903 21.2059 13.0903 21.0225C13.0903 20.8033 13.1476 20.6315 13.2627 20.5074C13.3776 20.3833 13.5228 20.3213 13.6986 20.3213C13.8961 20.3213 14.0518 20.3863 14.1659 20.5161C14.2801 20.6462 14.3346 20.845 14.3296 21.1132H13.4499C13.4525 21.2169 13.4807 21.2977 13.5349 21.3554C13.5891 21.4131 13.6567 21.4418 13.7374 21.4418C13.7923 21.4418 13.8385 21.4271 13.876 21.3971C13.9135 21.367 13.942 21.319 13.961 21.2526ZM13.9811 20.899C13.9785 20.7976 13.9523 20.7209 13.9025 20.6682C13.8522 20.6155 13.7917 20.5891 13.72 20.5891C13.6434 20.5891 13.5801 20.6168 13.5299 20.6725C13.48 20.7279 13.4556 20.8036 13.4562 20.899H13.9811Z" fill="#10298E"/>
<path d="M14.9698 21.6733H14.6187V20.351H14.9447V20.5391C15.0006 20.4504 15.0508 20.3917 15.0954 20.3637C15.1399 20.3353 15.1904 20.3213 15.2473 20.3213C15.3273 20.3213 15.4043 20.3433 15.4783 20.387L15.3695 20.6922C15.3106 20.6539 15.2554 20.6348 15.2048 20.6348C15.1556 20.6348 15.1138 20.6485 15.0796 20.6755C15.0455 20.7022 15.0187 20.7513 14.9993 20.8216C14.9795 20.8924 14.9698 21.0398 14.9698 21.265V21.6733Z" fill="#10298E"/>
<path d="M16.3789 21.6739V19.8486H17.737V20.1575H16.7488V20.5621H17.6684V20.8697H16.7488V21.3664H17.7722V21.6739H16.3789Z" fill="#10298E"/>
<path d="M18.9745 21.6729V21.4751C18.9263 21.5454 18.8627 21.6011 18.784 21.6415C18.7054 21.6822 18.6223 21.7029 18.5346 21.7029C18.4456 21.7029 18.3656 21.6832 18.2949 21.6442C18.224 21.6051 18.1728 21.5504 18.1413 21.4801C18.1095 21.4093 18.0938 21.3119 18.0938 21.1872V20.3506H18.4449V20.9584C18.4449 21.1442 18.4513 21.2579 18.464 21.2999C18.477 21.342 18.5005 21.375 18.5346 21.3997C18.5688 21.424 18.6123 21.4364 18.6645 21.4364C18.7248 21.4364 18.7783 21.42 18.8259 21.3873C18.8734 21.3543 18.9059 21.3136 18.9233 21.2652C18.9407 21.2165 18.9494 21.0978 18.9494 20.9083V20.3506H19.3006V21.6729H18.9745Z" fill="#10298E"/>
<path d="M20.0182 21.6733H19.667V20.351H19.993V20.5391C20.049 20.4504 20.0992 20.3917 20.1437 20.3637C20.1882 20.3353 20.2388 20.3213 20.2957 20.3213C20.3757 20.3213 20.4527 20.3433 20.5267 20.387L20.4179 20.6922C20.3589 20.6539 20.304 20.6348 20.2532 20.6348C20.2039 20.6348 20.1621 20.6485 20.128 20.6755C20.0938 20.7022 20.067 20.7513 20.0476 20.8216C20.0279 20.8924 20.0182 21.0398 20.0182 21.265V21.6733Z" fill="#10298E"/>
<path d="M20.6147 20.9934C20.6147 20.8774 20.6435 20.7649 20.7011 20.6559C20.7584 20.5475 20.8397 20.4644 20.9452 20.407C21.0506 20.35 21.1681 20.3213 21.2983 20.3213C21.4988 20.3213 21.6635 20.386 21.7918 20.5161C21.92 20.6459 21.9842 20.81 21.9842 21.0084C21.9842 21.2083 21.9193 21.3744 21.7898 21.5058C21.6602 21.6372 21.4972 21.7029 21.3007 21.7029C21.1792 21.7029 21.063 21.6756 20.9529 21.6209C20.8424 21.5662 20.7584 21.4858 20.7011 21.38C20.6435 21.2743 20.6147 21.1452 20.6147 20.9934ZM20.9746 21.0121C20.9746 21.1432 21.0057 21.2436 21.0683 21.3133C21.1309 21.383 21.2079 21.4181 21.2993 21.4181C21.3911 21.4181 21.4677 21.383 21.53 21.3133C21.5919 21.2436 21.623 21.1425 21.623 21.0094C21.623 20.88 21.5919 20.7806 21.53 20.7109C21.4677 20.6412 21.3911 20.6062 21.2993 20.6062C21.2079 20.6062 21.1309 20.6412 21.0683 20.7109C21.0057 20.7806 20.9746 20.881 20.9746 21.0121Z" fill="#10298E"/>
<path d="M22.2368 20.8369H22.9264V21.1868H22.2368V20.8369Z" fill="#10298E"/>
<path d="M22.9907 21.6739V21.3417L23.9528 20.1575H23.0995V19.8486H24.4402V20.1352L23.437 21.3664H24.4787V21.6739H22.9907Z" fill="#10298E"/>
<path d="M24.9901 20.7546L24.6714 20.6972C24.7072 20.5695 24.7688 20.4747 24.8565 20.4134C24.9439 20.352 25.0738 20.3213 25.2462 20.3213C25.4029 20.3213 25.5194 20.3396 25.596 20.3767C25.6727 20.4137 25.7266 20.4607 25.7577 20.5174C25.7892 20.5745 25.8046 20.6789 25.8046 20.8303L25.8009 21.2389C25.8009 21.3554 25.8066 21.4408 25.818 21.4958C25.829 21.5512 25.8501 21.6102 25.8809 21.6736H25.5337C25.5244 21.6502 25.5133 21.6159 25.4999 21.5702L25.4872 21.5292C25.4273 21.5872 25.3634 21.6309 25.2951 21.6599C25.2268 21.6886 25.1538 21.7033 25.0765 21.7033C24.9396 21.7033 24.8321 21.6666 24.7534 21.5925C24.6748 21.5188 24.6353 21.4254 24.6353 21.3123C24.6353 21.2376 24.653 21.1712 24.6888 21.1125C24.7246 21.0541 24.7748 21.0091 24.8395 20.9781C24.9041 20.9471 24.9971 20.9197 25.1186 20.8967C25.283 20.8657 25.3965 20.8373 25.4598 20.8106V20.7756C25.4598 20.7086 25.4434 20.6605 25.4099 20.6318C25.3764 20.6035 25.3138 20.5891 25.2211 20.5891C25.1588 20.5891 25.1099 20.6012 25.0751 20.6258C25.04 20.6502 25.0119 20.6932 24.9901 20.7546ZM25.4598 21.0385C25.4149 21.0535 25.3436 21.0715 25.2462 21.0922C25.1488 21.1129 25.0852 21.1332 25.055 21.1529C25.0092 21.1852 24.9864 21.2266 24.9864 21.2763C24.9864 21.3253 25.0048 21.3677 25.0413 21.4031C25.0781 21.4391 25.1247 21.4568 25.1812 21.4568C25.2445 21.4568 25.3051 21.4361 25.3624 21.3944C25.4049 21.363 25.433 21.3243 25.446 21.2786C25.4554 21.2486 25.4598 21.1919 25.4598 21.1082V21.0385Z" fill="#10298E"/>
<path d="M26.5186 19.8486V20.5198C26.6318 20.3877 26.767 20.3216 26.9247 20.3216C27.0054 20.3216 27.0784 20.3366 27.1433 20.3667C27.2082 20.3964 27.2571 20.4347 27.2903 20.4811C27.3231 20.5275 27.3455 20.5792 27.3576 20.6355C27.3696 20.6919 27.3756 20.7796 27.3756 20.8984V21.6739H27.0245V20.9754C27.0245 20.8367 27.0178 20.7489 27.0047 20.7112C26.9913 20.6742 26.9679 20.6445 26.9341 20.6225C26.9003 20.6005 26.8581 20.5895 26.8072 20.5895C26.749 20.5895 26.6967 20.6035 26.6509 20.6315C26.6053 20.6599 26.5715 20.7026 26.5504 20.7593C26.529 20.8163 26.5186 20.9004 26.5186 21.0115V21.6739H26.1675V19.8486H26.5186Z" fill="#10298E"/>
<path d="M27.7495 19.8486H28.1007V21.6739H27.7495V19.8486Z" fill="#10298E"/>
<path d="M29.3519 21.6729V21.4751C29.3037 21.5454 29.2401 21.6011 29.1615 21.6415C29.0828 21.6822 28.9994 21.7029 28.9121 21.7029C28.823 21.7029 28.743 21.6832 28.6724 21.6442C28.6014 21.6051 28.5502 21.5504 28.5184 21.4801C28.4869 21.4093 28.4712 21.3119 28.4712 21.1872V20.3506H28.822V20.9584C28.822 21.1442 28.8287 21.2579 28.8414 21.2999C28.8542 21.342 28.8779 21.375 28.9121 21.3997C28.9462 21.424 28.9897 21.4364 29.042 21.4364C29.1019 21.4364 29.1558 21.42 29.2033 21.3873C29.2508 21.3543 29.283 21.3136 29.3007 21.2652C29.3181 21.2165 29.3268 21.0978 29.3268 20.9083V20.3506H29.678V21.6729H29.3519Z" fill="#10298E"/>
<path d="M31.2666 21.6733H30.9155V20.9984C30.9155 20.8557 30.9081 20.7633 30.893 20.7212C30.878 20.6795 30.8535 20.6472 30.8197 20.6238C30.7862 20.6005 30.7454 20.5888 30.6982 20.5888C30.6373 20.5888 30.5827 20.6055 30.5342 20.6388C30.486 20.6719 30.4531 20.7159 30.4351 20.7706C30.417 20.8253 30.4083 20.9267 30.4083 21.0742V21.6733H30.0571V20.351H30.3832V20.5451C30.499 20.396 30.6446 20.3213 30.8204 20.3213C30.898 20.3213 30.9687 20.335 31.033 20.363C31.0969 20.3907 31.1454 20.4264 31.1786 20.4694C31.2114 20.5124 31.2341 20.5615 31.2472 20.6162C31.2599 20.6709 31.2666 20.7496 31.2666 20.8517V21.6733Z" fill="#10298E"/>
<path d="M31.6077 21.7607L32.0088 21.8094C32.0155 21.8557 32.0309 21.8877 32.055 21.9051C32.0881 21.9301 32.1407 21.9424 32.2123 21.9424C32.304 21.9424 32.3726 21.9288 32.4185 21.9011C32.4493 21.8831 32.4727 21.8537 32.4885 21.813C32.4992 21.784 32.5045 21.7303 32.5045 21.6522V21.4594C32.3998 21.6022 32.2675 21.6736 32.1075 21.6736C31.9291 21.6736 31.7878 21.5985 31.6837 21.4481C31.6024 21.3297 31.5615 21.1819 31.5615 21.0048C31.5615 20.7833 31.6148 20.6142 31.7219 20.4967C31.829 20.38 31.9619 20.3213 32.1212 20.3213C32.2853 20.3213 32.4209 20.3933 32.5273 20.5368V20.3513H32.8557V21.5378C32.8557 21.6936 32.843 21.8104 32.8172 21.8877C32.7911 21.9648 32.7549 22.0255 32.7084 22.0695C32.6619 22.1136 32.5993 22.1479 32.5216 22.1729C32.4436 22.1976 32.3452 22.21 32.226 22.21C32.0011 22.21 31.8417 22.1716 31.7476 22.0949C31.6532 22.0182 31.6064 21.9208 31.6064 21.803L31.6077 21.7607ZM31.9214 20.9848C31.9214 21.1252 31.9485 21.2279 32.0031 21.2933C32.0576 21.3584 32.1249 21.3911 32.2049 21.3911C32.2906 21.3911 32.3629 21.3574 32.4222 21.2906C32.4814 21.2239 32.5109 21.1249 32.5109 20.9938C32.5109 20.8567 32.4828 20.7553 32.4259 20.6889C32.3693 20.6225 32.2977 20.5891 32.211 20.5891C32.1269 20.5891 32.0576 20.6218 32.0031 20.6869C31.9485 20.7519 31.9214 20.8513 31.9214 20.9848Z" fill="#10298E"/>
<path d="M33.0977 21.2963L33.4502 21.2426C33.4649 21.3107 33.4954 21.3624 33.5412 21.3977C33.5871 21.4331 33.651 21.4508 33.7337 21.4508C33.8244 21.4508 33.8927 21.4341 33.9386 21.4011C33.9694 21.3777 33.9848 21.3464 33.9848 21.3073L33.9597 21.2416C33.9423 21.2249 33.9031 21.2096 33.8422 21.1952C33.5593 21.1332 33.3795 21.0765 33.3039 21.0248C33.1991 20.9534 33.1462 20.8543 33.1462 20.7272C33.1462 20.6128 33.1917 20.5164 33.2824 20.4384C33.3735 20.3603 33.5141 20.3213 33.7049 20.3213C33.8864 20.3213 34.0216 20.351 34.1096 20.41C34.198 20.4687 34.2589 20.5558 34.2921 20.6712L33.961 20.7322C33.9469 20.6809 33.9198 20.6412 33.8803 20.6142C33.8408 20.5865 33.7842 20.5728 33.7109 20.5728C33.6189 20.5728 33.5526 20.5858 33.5124 20.6115L33.4726 20.6825L33.5074 20.7459C33.5392 20.7693 33.6483 20.802 33.8355 20.8443C34.0223 20.8867 34.1532 20.9387 34.2271 20.9998C34.3004 21.0622 34.3373 21.1489 34.3373 21.26C34.3373 21.3814 34.2864 21.4855 34.1846 21.5725C34.0832 21.6599 33.9325 21.7033 33.7337 21.7033C33.5529 21.7033 33.41 21.6669 33.3045 21.5939C33.1991 21.5208 33.1301 21.4217 33.0977 21.2963Z" fill="#10298E"/>
<path d="M35.0273 21.6729L34.4927 20.3506H34.8612L35.111 21.0254L35.1836 21.2509C35.2027 21.1935 35.2148 21.1558 35.2198 21.1375C35.2315 21.1001 35.2439 21.0628 35.2573 21.0254L35.5097 20.3506H35.8709L35.3436 21.6729H35.0273Z" fill="#10298E"/>
<path d="M36.8722 21.2526L37.222 21.3113C37.1771 21.4391 37.1058 21.5362 37.0091 21.6032C36.912 21.6699 36.7905 21.7033 36.6449 21.7033C36.4139 21.7033 36.2432 21.6282 36.1324 21.4778C36.045 21.3577 36.0015 21.2059 36.0015 21.0225C36.0015 20.8033 36.0587 20.6315 36.1735 20.5074C36.2887 20.3833 36.434 20.3213 36.6097 20.3213C36.8072 20.3213 36.9629 20.3863 37.077 20.5161C37.1912 20.6462 37.2458 20.845 37.2407 21.1132H36.3613C36.3637 21.2169 36.3918 21.2977 36.446 21.3554C36.5003 21.4131 36.5679 21.4418 36.6486 21.4418C36.7035 21.4418 36.7497 21.4271 36.7871 21.3971C36.8246 21.367 36.8531 21.319 36.8722 21.2526ZM36.8923 20.899C36.8896 20.7976 36.8635 20.7209 36.8133 20.6682C36.7634 20.6155 36.7028 20.5891 36.6311 20.5891C36.5545 20.5891 36.4912 20.6168 36.4413 20.6725C36.3911 20.7279 36.3667 20.8036 36.3674 20.899H36.8923Z" fill="#10298E"/>
<path d="M37.8805 21.6733H37.5293V20.351H37.8554V20.5391C37.9113 20.4504 37.9615 20.3917 38.006 20.3637C38.0505 20.3353 38.1011 20.3213 38.1576 20.3213C38.2377 20.3213 38.315 20.3433 38.389 20.387L38.2802 20.6922C38.2212 20.6539 38.166 20.6348 38.1155 20.6348C38.0663 20.6348 38.0244 20.6485 37.9903 20.6755C37.9561 20.7022 37.9293 20.7513 37.9099 20.8216C37.8902 20.8924 37.8805 21.0398 37.8805 21.265V21.6733Z" fill="#10298E"/>
<path d="M38.5454 21.6739V19.8486H38.8966V20.8173L39.3077 20.3517H39.7398L39.2866 20.8347L39.7726 21.6739H39.394L39.0603 21.0798L38.8966 21.2506V21.6739H38.5454Z" fill="#10298E"/>
<path d="M40.768 21.2526L41.1178 21.3113C41.073 21.4391 41.002 21.5362 40.9049 21.6032C40.8075 21.6699 40.6863 21.7033 40.5407 21.7033C40.3097 21.7033 40.139 21.6282 40.0282 21.4778C39.9408 21.3577 39.897 21.2059 39.897 21.0225C39.897 20.8033 39.9546 20.6315 40.0697 20.5074C40.1845 20.3833 40.3298 20.3213 40.5056 20.3213C40.7031 20.3213 40.8587 20.3863 40.9729 20.5161C41.087 20.6462 41.1416 20.845 41.1366 21.1132H40.2568C40.2595 21.2169 40.288 21.2977 40.3419 21.3554C40.3961 21.4131 40.4634 21.4418 40.5444 21.4418C40.5993 21.4418 40.6455 21.4271 40.683 21.3971C40.7205 21.367 40.7489 21.319 40.768 21.2526ZM40.7881 20.899C40.7854 20.7976 40.7593 20.7209 40.7094 20.6682C40.6596 20.6155 40.5983 20.5891 40.5267 20.5891C40.45 20.5891 40.3867 20.6168 40.3368 20.6725C40.287 20.7279 40.2625 20.8036 40.2632 20.899H40.7881Z" fill="#10298E"/>
<path d="M41.7901 19.8486V20.5198C41.9033 20.3877 42.0385 20.3216 42.1962 20.3216C42.2769 20.3216 42.3498 20.3366 42.4148 20.3667C42.4797 20.3964 42.5286 20.4347 42.5617 20.4811C42.5946 20.5275 42.617 20.5792 42.629 20.6355C42.6411 20.6919 42.6471 20.7796 42.6471 20.8984V21.6739H42.296V20.9754C42.296 20.8367 42.2893 20.7489 42.2762 20.7112C42.2628 20.6742 42.2394 20.6445 42.2056 20.6225C42.1718 20.6005 42.1296 20.5895 42.0787 20.5895C42.0204 20.5895 41.9682 20.6035 41.9224 20.6315C41.8768 20.6599 41.843 20.7026 41.8219 20.7593C41.8005 20.8163 41.7901 20.9004 41.7901 21.0115V21.6739H41.439V19.8486H41.7901Z" fill="#10298E"/>
<path d="M43.3575 21.6733H43.0063V20.351H43.3324V20.5391C43.3883 20.4504 43.4385 20.3917 43.483 20.3637C43.5276 20.3353 43.5781 20.3213 43.635 20.3213C43.7147 20.3213 43.7917 20.3433 43.866 20.387L43.7572 20.6922C43.6983 20.6539 43.6431 20.6348 43.5925 20.6348C43.5433 20.6348 43.5015 20.6485 43.4673 20.6755C43.4332 20.7022 43.4064 20.7513 43.387 20.8216C43.3672 20.8924 43.3575 21.0398 43.3575 21.265V21.6733Z" fill="#10298E"/>
<path d="M43.9116 21.2963L44.2638 21.2426C44.2789 21.3107 44.3093 21.3624 44.3552 21.3977C44.401 21.4331 44.465 21.4508 44.5477 21.4508C44.6384 21.4508 44.7067 21.4341 44.7525 21.4011C44.7833 21.3777 44.7987 21.3464 44.7987 21.3073L44.7736 21.2416C44.7562 21.2249 44.7171 21.2096 44.6561 21.1952C44.3729 21.1332 44.1935 21.0765 44.1178 21.0248C44.0131 20.9534 43.9602 20.8543 43.9602 20.7272C43.9602 20.6128 44.0057 20.5164 44.0964 20.4384C44.1875 20.3603 44.3281 20.3213 44.5189 20.3213C44.7003 20.3213 44.8352 20.351 44.9236 20.41C45.012 20.4687 45.0729 20.5558 45.106 20.6712L44.775 20.7322C44.7609 20.6809 44.7338 20.6412 44.6943 20.6142C44.6548 20.5865 44.5982 20.5728 44.5249 20.5728C44.4328 20.5728 44.3666 20.5858 44.3264 20.6115L44.2866 20.6825L44.3214 20.7459C44.3532 20.7693 44.4623 20.802 44.6494 20.8443C44.8362 20.8867 44.9671 20.9387 45.0411 20.9998C45.1144 21.0622 45.1512 21.1489 45.1512 21.26C45.1512 21.3814 45.1004 21.4855 44.9986 21.5725C44.8972 21.6599 44.7465 21.7033 44.5477 21.7033C44.3666 21.7033 44.224 21.6669 44.1185 21.5939C44.0131 21.5208 43.9441 21.4217 43.9116 21.2963Z" fill="#10298E"/>
<path d="M45.8121 21.6733H45.4609V20.351H45.787V20.5391C45.8429 20.4504 45.8931 20.3917 45.9376 20.3637C45.9822 20.3353 46.0327 20.3213 46.0896 20.3213C46.1696 20.3213 46.2466 20.3433 46.3206 20.387L46.2118 20.6922C46.1529 20.6539 46.098 20.6348 46.0471 20.6348C45.9979 20.6348 45.9564 20.6485 45.9219 20.6755C45.8881 20.7022 45.861 20.7513 45.8416 20.8216C45.8218 20.8924 45.8121 21.0398 45.8121 21.265V21.6733Z" fill="#10298E"/>
<path d="M46.7523 20.7546L46.4336 20.6972C46.4698 20.5695 46.5314 20.4747 46.6187 20.4134C46.7061 20.352 46.836 20.3213 47.0084 20.3213C47.1651 20.3213 47.2819 20.3396 47.3582 20.3767C47.4349 20.4137 47.4891 20.4607 47.5202 20.5174C47.5514 20.5745 47.5668 20.6789 47.5668 20.8303L47.5631 21.2389C47.5631 21.3554 47.5688 21.4408 47.5802 21.4958C47.5915 21.5512 47.6123 21.6102 47.6431 21.6736H47.296C47.2866 21.6502 47.2755 21.6159 47.2621 21.5702L47.2498 21.5292C47.1898 21.5872 47.1256 21.6309 47.0573 21.6599C46.989 21.6886 46.916 21.7033 46.8387 21.7033C46.7021 21.7033 46.5943 21.6666 46.5156 21.5925C46.437 21.5188 46.3975 21.4254 46.3975 21.3123C46.3975 21.2376 46.4155 21.1712 46.4514 21.1125C46.4872 21.0541 46.5371 21.0091 46.602 20.9781C46.6663 20.9471 46.7593 20.9197 46.8812 20.8967C47.0452 20.8657 47.1587 20.8373 47.222 20.8106V20.7756C47.222 20.7086 47.2056 20.6605 47.1721 20.6318C47.139 20.6035 47.076 20.5891 46.9836 20.5891C46.921 20.5891 46.8722 20.6012 46.8373 20.6258C46.8022 20.6502 46.7741 20.6932 46.7523 20.7546ZM47.222 21.0385C47.1771 21.0535 47.1058 21.0715 47.0084 21.0922C46.911 21.1129 46.8474 21.1332 46.8172 21.1529C46.7717 21.1852 46.7486 21.2266 46.7486 21.2763C46.7486 21.3253 46.767 21.3677 46.8035 21.4031C46.8403 21.4391 46.8869 21.4568 46.9435 21.4568C47.0067 21.4568 47.0673 21.4361 47.1249 21.3944C47.1671 21.363 47.1952 21.3243 47.2086 21.2786C47.2176 21.2486 47.222 21.1919 47.222 21.1082V21.0385Z" fill="#10298E"/>
<path d="M48.8039 21.6729V21.4751C48.7557 21.5454 48.6921 21.6011 48.6135 21.6415C48.5348 21.6822 48.4518 21.7029 48.3641 21.7029C48.275 21.7029 48.195 21.6832 48.1244 21.6442C48.0534 21.6051 48.0022 21.5504 47.9707 21.4801C47.9389 21.4093 47.9229 21.3119 47.9229 21.1872V20.3506H48.274V20.9584C48.274 21.1442 48.2804 21.2579 48.2934 21.2999C48.3065 21.342 48.3299 21.375 48.3641 21.3997C48.3982 21.424 48.4417 21.4364 48.494 21.4364C48.5542 21.4364 48.6078 21.42 48.6553 21.3873C48.7025 21.3543 48.7353 21.3136 48.7527 21.2652C48.7701 21.2165 48.7788 21.0978 48.7788 20.9083V20.3506H49.13V21.6729H48.8039Z" fill="#10298E"/>
<path d="M49.4854 20.3513H49.8087V20.5318C49.9249 20.3917 50.0625 20.3213 50.2225 20.3213C50.3075 20.3213 50.3812 20.339 50.4434 20.3737C50.5064 20.4087 50.5573 20.4614 50.5974 20.5318C50.6557 20.4614 50.7186 20.4087 50.7862 20.3737C50.8535 20.339 50.9255 20.3213 51.0022 20.3213C51.0996 20.3213 51.1819 20.3413 51.2495 20.3807C51.3172 20.42 51.3674 20.4781 51.4009 20.5545C51.425 20.6108 51.437 20.7022 51.437 20.8283V21.6736H51.0858V20.918C51.0858 20.7866 51.0738 20.7022 51.0497 20.6639C51.0172 20.6142 50.9673 20.5891 50.8997 20.5891C50.8505 20.5891 50.8043 20.6042 50.7611 20.6342C50.7179 20.6639 50.6865 20.7076 50.6674 20.7653C50.6483 20.823 50.6386 20.914 50.6386 21.0385V21.6736H50.2874V20.9491C50.2874 20.8203 50.2814 20.7373 50.2687 20.6999C50.2563 20.6625 50.2369 20.6348 50.2108 20.6165C50.1843 20.5985 50.1488 20.5891 50.1037 20.5891C50.0498 20.5891 50.0009 20.6035 49.9577 20.6328C49.9142 20.6619 49.8834 20.7039 49.8646 20.7586C49.8459 20.8133 49.8365 20.904 49.8365 21.0311V21.6736H49.4854V20.3513Z" fill="#10298E"/>
<path d="M0.015625 17.588L0.543542 17.5369C0.57501 17.7134 0.639618 17.8428 0.736699 17.9259C0.833779 18.0086 0.965005 18.05 1.12971 18.05C1.30445 18.05 1.43601 18.013 1.52472 17.9396C1.6131 17.8658 1.65762 17.7798 1.65762 17.681C1.65762 17.618 1.63888 17.564 1.60172 17.5193C1.56423 17.4752 1.49928 17.4365 1.40655 17.4035C1.34295 17.3815 1.19833 17.3425 0.972035 17.2868C0.681463 17.2147 0.47726 17.1267 0.360093 17.0219C0.195057 16.8748 0.112706 16.695 0.112706 16.4832C0.112706 16.3471 0.151538 16.2193 0.229202 16.1009C0.306532 15.9818 0.418342 15.8918 0.564632 15.8294C0.710253 15.7674 0.886671 15.7363 1.09322 15.7363C1.43032 15.7363 1.68407 15.81 1.85446 15.9575C2.02486 16.1046 2.11457 16.3014 2.12294 16.5472L1.58063 16.5709C1.5572 16.4332 1.50765 16.3344 1.43133 16.274C1.355 16.214 1.24018 16.1836 1.08753 16.1836C0.93019 16.1836 0.806664 16.216 0.717617 16.2807C0.660039 16.3217 0.631249 16.3775 0.631249 16.4468C0.631249 16.5099 0.65803 16.5643 0.711927 16.6093C0.780218 16.6667 0.946594 16.726 1.21038 16.7881C1.47418 16.8501 1.66934 16.9145 1.79588 16.9809C1.92242 17.0473 2.02117 17.138 2.09281 17.2527C2.16412 17.3682 2.19994 17.5103 2.19994 17.6794C2.19994 17.8328 2.15709 17.9763 2.07172 18.1104C1.98602 18.2441 1.86518 18.3435 1.70884 18.4089C1.55251 18.4739 1.35768 18.5066 1.12435 18.5066C0.78457 18.5066 0.523791 18.4282 0.341682 18.2718C0.159572 18.1154 0.0511096 17.8875 0.015625 17.588Z" fill="#10298E"/>
<path d="M2.76562 15.7803H3.28049V16.2549H2.76562V15.7803ZM2.76562 16.5178H3.28049V18.4572H2.76562V16.5178Z" fill="#10298E"/>
<path d="M5.69089 18.4557H5.17603V17.466C5.17603 17.2565 5.16498 17.1211 5.14289 17.0597C5.12113 16.9984 5.08531 16.9503 5.03576 16.9163C4.98622 16.8823 4.92663 16.8653 4.857 16.8653C4.76795 16.8653 4.68795 16.8896 4.61698 16.9383C4.54601 16.987 4.49747 17.0514 4.47136 17.1318C4.44491 17.2122 4.43185 17.3606 4.43185 17.5774V18.4557H3.91699V16.5164H4.39536V16.8012C4.56509 16.5821 4.779 16.4727 5.03677 16.4727C5.15025 16.4727 5.25403 16.493 5.34809 16.5337C5.44216 16.5747 5.51346 16.6268 5.56167 16.6898C5.60988 16.7532 5.64335 16.8252 5.66243 16.9053C5.68151 16.9857 5.69089 17.1008 5.69089 17.2505V18.4557Z" fill="#10298E"/>
<path d="M6.27841 18.5835L6.86658 18.6549C6.87629 18.7229 6.89905 18.7696 6.93454 18.7953C6.98341 18.832 7.06007 18.85 7.16552 18.85C7.29976 18.85 7.40052 18.83 7.46781 18.79C7.513 18.763 7.54715 18.7199 7.57025 18.6602C7.58598 18.6175 7.59401 18.5391 7.59401 18.4247V18.1415C7.44036 18.351 7.24586 18.4557 7.01153 18.4557C6.75008 18.4557 6.54287 18.3453 6.39022 18.1252C6.27037 17.951 6.21045 17.7346 6.21045 17.475C6.21045 17.1501 6.28912 16.9016 6.44612 16.7302C6.60312 16.5584 6.79829 16.4727 7.03162 16.4727C7.27231 16.4727 7.47082 16.5777 7.62715 16.7885V16.5164H8.10921V18.2566C8.10921 18.4854 8.09013 18.6565 8.0523 18.7696C8.01447 18.883 7.96125 18.9718 7.89295 19.0365C7.82433 19.1009 7.73294 19.1512 7.61879 19.1879C7.50463 19.2243 7.36002 19.2426 7.18561 19.2426C6.85553 19.2426 6.62153 19.1863 6.48361 19.0738C6.34569 18.9611 6.27673 18.8183 6.27673 18.6455L6.27841 18.5835ZM6.73837 17.446C6.73837 17.6515 6.7782 17.8023 6.85855 17.898C6.93822 17.9934 7.03697 18.0411 7.15447 18.0411C7.28001 18.0411 7.38646 17.9921 7.47317 17.8943C7.55987 17.7963 7.60339 17.6512 7.60339 17.4587C7.60339 17.2579 7.56188 17.1088 7.47886 17.0114C7.3955 16.914 7.29039 16.8653 7.16351 16.8653C7.03999 16.8653 6.93822 16.913 6.85855 17.0084C6.7782 17.1041 6.73837 17.2499 6.73837 17.446Z" fill="#10298E"/>
<path d="M8.73096 15.7803H9.24582V18.4572H8.73096V15.7803Z" fill="#10298E"/>
<path d="M11.0134 17.8386L11.5266 17.9244C11.4607 18.1118 11.3562 18.2546 11.214 18.3527C11.0717 18.4507 10.8936 18.4998 10.68 18.4998C10.3416 18.4998 10.0912 18.3894 9.92848 18.1692C9.80027 17.9927 9.73633 17.7699 9.73633 17.5007C9.73633 17.1795 9.82035 16.9276 9.98907 16.7455C10.1578 16.5637 10.3707 16.4727 10.6285 16.4727C10.918 16.4727 11.1467 16.5681 11.3141 16.7585C11.4814 16.949 11.5614 17.2409 11.5541 17.6342H10.2639C10.2676 17.7863 10.3091 17.9047 10.3884 17.9894C10.4678 18.0738 10.5669 18.1162 10.6854 18.1162C10.7661 18.1162 10.834 18.0941 10.8889 18.0504C10.9438 18.0068 10.9853 17.936 11.0134 17.8386ZM11.0429 17.3199C11.0392 17.1715 11.0007 17.0584 10.9274 16.9814C10.8541 16.904 10.7647 16.8653 10.6596 16.8653C10.5475 16.8653 10.4544 16.9063 10.3811 16.9877C10.3078 17.0691 10.2719 17.1802 10.2729 17.3199H11.0429Z" fill="#10298E"/>
<path d="M13.2451 18.4572V15.7803H15.2369V16.2329H13.7874V16.8267H15.1362V17.2777H13.7874V18.0062H15.2885V18.4572H13.2451Z" fill="#10298E"/>
<path d="M17.138 18.4579V18.1677C17.0671 18.2711 16.974 18.3525 16.8585 18.4122C16.743 18.472 16.6212 18.5016 16.4929 18.5016C16.3621 18.5016 16.2449 18.4733 16.1411 18.4159C16.0373 18.3585 15.962 18.2785 15.9158 18.1747C15.8693 18.0713 15.8462 17.9282 15.8462 17.7458V16.5186H16.3611V17.4099C16.3611 17.6824 16.3704 17.8495 16.3895 17.9112C16.4083 17.9726 16.4427 18.0213 16.4929 18.0573C16.5432 18.093 16.6068 18.111 16.6834 18.111C16.7715 18.111 16.8505 18.087 16.9201 18.039C16.9897 17.9909 17.0373 17.9309 17.063 17.8598C17.0885 17.7885 17.1015 17.6143 17.1015 17.3368V16.5186H17.6164V18.4579H17.138Z" fill="#10298E"/>
<path d="M18.7551 18.4557H18.2402V16.5164H18.7186V16.7922C18.8003 16.6618 18.8739 16.5761 18.9392 16.5347C19.0045 16.4933 19.0788 16.4727 19.1618 16.4727C19.2793 16.4727 19.3921 16.505 19.5009 16.5694L19.3416 17.0167C19.2546 16.961 19.1742 16.933 19.0996 16.933C19.0276 16.933 18.9663 16.9527 18.9164 16.9924C18.8662 17.0317 18.8267 17.1034 18.7983 17.2068C18.7695 17.3103 18.7551 17.5271 18.7551 17.8566V18.4557Z" fill="#10298E"/>
<path d="M19.7168 17.4587C19.7168 17.2882 19.759 17.1235 19.8433 16.964C19.9277 16.8042 20.0469 16.6825 20.2015 16.5987C20.3559 16.5147 20.5286 16.4727 20.7191 16.4727C21.0137 16.4727 21.255 16.5681 21.4432 16.7585C21.631 16.949 21.7254 17.1895 21.7254 17.4807C21.7254 17.7739 21.6303 18.0171 21.4401 18.2099C21.2503 18.403 21.0113 18.4994 20.7228 18.4994C20.5443 18.4994 20.3743 18.4594 20.2126 18.379C20.0506 18.2986 19.9277 18.1809 19.8433 18.0258C19.759 17.8703 19.7168 17.6815 19.7168 17.4587ZM20.2447 17.486C20.2447 17.6785 20.2902 17.8256 20.382 17.928C20.4737 18.0301 20.5865 18.0815 20.7211 18.0815C20.8553 18.0815 20.9681 18.0301 21.0592 17.928C21.1499 17.8256 21.1958 17.6772 21.1958 17.4824C21.1958 17.2926 21.1499 17.1465 21.0592 17.0441C20.9681 16.942 20.8553 16.891 20.7211 16.891C20.5865 16.891 20.4737 16.942 20.382 17.0441C20.2902 17.1465 20.2447 17.2936 20.2447 17.486Z" fill="#10298E"/>
<path d="M23.3994 18.4572V15.7803H24.2698C24.5999 15.7803 24.8148 15.7936 24.9149 15.8203C25.0689 15.8607 25.1977 15.9481 25.3015 16.0825C25.4053 16.2169 25.4572 16.3907 25.4572 16.6039C25.4572 16.768 25.4274 16.9061 25.3675 17.0182C25.3075 17.1302 25.2316 17.2183 25.1395 17.2823C25.0471 17.3461 24.9534 17.3884 24.858 17.4091C24.7287 17.4345 24.5409 17.4475 24.2956 17.4475H23.9417V18.4572H23.3994ZM23.9417 16.2329V16.9928H24.2387C24.4526 16.9928 24.5955 16.9788 24.6675 16.9508C24.7395 16.9228 24.796 16.8787 24.8369 16.8193C24.8781 16.7596 24.8985 16.6903 24.8985 16.6112C24.8985 16.5138 24.8697 16.4334 24.8124 16.37C24.7549 16.3066 24.6822 16.267 24.5942 16.2513C24.5296 16.2393 24.3993 16.2329 24.2038 16.2329H23.9417Z" fill="#10298E"/>
<path d="M26.3967 17.1081L25.9297 17.024C25.9819 16.8366 26.0726 16.6978 26.2008 16.6078C26.3291 16.5177 26.5195 16.4727 26.7726 16.4727C27.0019 16.4727 27.173 16.4997 27.2855 16.554C27.398 16.6081 27.477 16.6768 27.5228 16.7602C27.5687 16.8436 27.5914 16.9967 27.5914 17.2195L27.5861 17.8183C27.5861 17.9891 27.5945 18.1145 27.6109 18.1955C27.6273 18.2763 27.6581 18.3633 27.7036 18.4557H27.1941C27.1804 18.4217 27.164 18.371 27.1442 18.3043C27.1358 18.2739 27.1298 18.2536 27.1261 18.2439C27.0381 18.329 26.944 18.393 26.8439 18.4357C26.7438 18.4784 26.637 18.4994 26.5232 18.4994C26.3227 18.4994 26.165 18.4454 26.0495 18.337C25.934 18.2286 25.8765 18.0918 25.8765 17.926C25.8765 17.8166 25.9026 17.7189 25.9551 17.6331C26.0074 17.5474 26.081 17.4817 26.1761 17.4357C26.2705 17.3903 26.4071 17.3503 26.5855 17.3163C26.8262 17.2712 26.9929 17.2292 27.0856 17.1902V17.1391C27.0856 17.0404 27.0615 16.9703 27.0123 16.9283C26.9634 16.8863 26.8714 16.8653 26.7358 16.8653C26.6441 16.8653 26.5724 16.8833 26.5212 16.9193C26.47 16.955 26.4285 17.018 26.3967 17.1081ZM27.0856 17.5244C27.0197 17.5464 26.9156 17.5724 26.7726 17.6031C26.6297 17.6335 26.5359 17.6632 26.4921 17.6925C26.4248 17.7399 26.3913 17.8003 26.3913 17.8733C26.3913 17.945 26.4181 18.0071 26.472 18.0595C26.5256 18.1118 26.5939 18.1378 26.6772 18.1378C26.7699 18.1378 26.8583 18.1075 26.9427 18.0468C27.0049 18.0004 27.0461 17.9437 27.0659 17.877C27.0789 17.833 27.0856 17.7496 27.0856 17.6268V17.5244Z" fill="#10298E"/>
<path d="M27.9678 16.5186H28.5158L28.9814 17.8955L29.4357 16.5186H29.969L29.2817 18.3849L29.1589 18.7225C29.1137 18.8359 29.0705 18.9223 29.03 18.982C28.9888 19.0414 28.9419 19.0901 28.8887 19.1271C28.8355 19.1641 28.7702 19.1931 28.6925 19.2138C28.6149 19.2345 28.5275 19.2448 28.4294 19.2448C28.3307 19.2448 28.2336 19.2345 28.1385 19.2138L28.0923 18.8122C28.173 18.8279 28.2456 18.8359 28.3106 18.8359C28.4301 18.8359 28.5188 18.8009 28.576 18.7308C28.6336 18.6608 28.6775 18.5717 28.7083 18.4633L27.9678 16.5186Z" fill="#10298E"/>
<path d="M30.373 16.5164H30.8477V16.7812C31.0175 16.5754 31.2197 16.4727 31.4543 16.4727C31.5789 16.4727 31.687 16.498 31.7787 16.549C31.8701 16.6004 31.9454 16.6778 32.004 16.7812C32.0894 16.6778 32.1818 16.6004 32.2808 16.549C32.3796 16.498 32.4854 16.4727 32.5979 16.4727C32.7408 16.4727 32.8617 16.5013 32.9604 16.5591C33.0595 16.6171 33.1335 16.7018 33.1824 16.8139C33.2175 16.897 33.2356 17.0307 33.2356 17.2159V18.4557H32.7204V17.3473C32.7204 17.1548 32.703 17.0307 32.6675 16.9747C32.6196 16.9016 32.5463 16.8653 32.4476 16.8653C32.3752 16.8653 32.3076 16.887 32.244 16.931C32.1804 16.9747 32.1349 17.0391 32.1068 17.1235C32.0783 17.2082 32.0646 17.3416 32.0646 17.5244V18.4557H31.5494V17.393C31.5494 17.2042 31.5404 17.0824 31.5219 17.0277C31.5039 16.973 31.4754 16.932 31.4369 16.9053C31.3984 16.8786 31.3462 16.8653 31.2802 16.8653C31.2006 16.8653 31.1293 16.8863 31.0657 16.929C31.0024 16.9717 30.9565 17.0331 30.9294 17.1134C30.9016 17.1938 30.8879 17.3273 30.8879 17.5134V18.4557H30.373V16.5164Z" fill="#10298E"/>
<path d="M34.9879 17.8386L35.5011 17.9244C35.4351 18.1118 35.3307 18.2546 35.1884 18.3527C35.0461 18.4507 34.868 18.4998 34.6545 18.4998C34.3157 18.4998 34.0656 18.3894 33.9029 18.1692C33.7747 17.9927 33.7104 17.7699 33.7104 17.5007C33.7104 17.1795 33.7948 16.9276 33.9635 16.7455C34.1322 16.5637 34.3452 16.4727 34.6029 16.4727C34.8925 16.4727 35.1211 16.5681 35.2885 16.7585C35.4556 16.949 35.5359 17.2409 35.5285 17.6342H34.2384C34.242 17.7863 34.2836 17.9047 34.3629 17.9894C34.4426 18.0738 34.5413 18.1162 34.6598 18.1162C34.7405 18.1162 34.8085 18.0941 34.8634 18.0504C34.9183 18.0068 34.9598 17.936 34.9879 17.8386ZM35.0174 17.3199C35.0137 17.1715 34.9752 17.0584 34.9019 16.9814C34.8285 16.904 34.7392 16.8653 34.634 16.8653C34.5219 16.8653 34.4288 16.9063 34.3555 16.9877C34.2822 17.0691 34.2461 17.1802 34.2474 17.3199H35.0174Z" fill="#10298E"/>
<path d="M37.831 18.4557H37.3162V17.466C37.3162 17.2565 37.3051 17.1211 37.283 17.0597C37.2609 16.9984 37.2254 16.9503 37.1759 16.9163C37.1264 16.8823 37.0668 16.8653 36.9971 16.8653C36.9081 16.8653 36.8281 16.8896 36.7571 16.9383C36.6861 16.987 36.6376 17.0514 36.6115 17.1318C36.5854 17.2122 36.572 17.3606 36.572 17.5774V18.4557H36.0571V16.5164H36.5355V16.8012C36.7052 16.5821 36.9191 16.4727 37.1769 16.4727C37.2904 16.4727 37.3942 16.493 37.4882 16.5337C37.5823 16.5747 37.6533 16.6268 37.7018 16.6898C37.75 16.7532 37.7838 16.8252 37.8026 16.9053C37.8216 16.9857 37.831 17.1008 37.831 17.2505V18.4557Z" fill="#10298E"/>
<path d="M39.3585 16.5188V16.9278H39.0066V17.7093C39.0066 17.8674 39.01 17.9598 39.0167 17.9859L39.0625 18.0509C39.0863 18.0679 39.1151 18.0763 39.1496 18.0763C39.1971 18.0763 39.2661 18.0599 39.3565 18.0272L39.4003 18.4252C39.2808 18.4762 39.1452 18.5019 38.9936 18.5019C38.9008 18.5019 38.8172 18.4862 38.7428 18.4555C38.6682 18.4242 38.6136 18.3841 38.5788 18.3348C38.544 18.2854 38.5196 18.2187 38.5062 18.135C38.4951 18.0753 38.4898 17.9548 38.4898 17.7734V16.9278H38.2534V16.5188H38.4898V16.1335L39.0066 15.834V16.5188H39.3585Z" fill="#10298E"/>
<path d="M39.647 17.9023L40.1638 17.824C40.1856 17.9237 40.2301 17.9994 40.2974 18.0511C40.3647 18.1028 40.4588 18.1288 40.5796 18.1288C40.7128 18.1288 40.8129 18.1045 40.8802 18.0558C40.9254 18.0218 40.9482 17.9761 40.9482 17.9187C40.9482 17.8797 40.9358 17.8476 40.9114 17.822C40.8859 17.7976 40.828 17.7753 40.7393 17.7546C40.3235 17.6632 40.0604 17.5798 39.9493 17.5044C39.7953 17.3997 39.7183 17.2542 39.7183 17.0677C39.7183 16.9 39.7849 16.7585 39.9181 16.6441C40.051 16.5297 40.2576 16.4727 40.5378 16.4727C40.8039 16.4727 41.0018 16.5157 41.1313 16.6021C41.2605 16.6888 41.3499 16.8166 41.3988 16.9857L40.913 17.0751C40.8923 16.9997 40.8531 16.942 40.7949 16.9016C40.737 16.8616 40.6543 16.8416 40.5465 16.8416C40.4109 16.8416 40.3142 16.8603 40.2552 16.898C40.2161 16.9246 40.1967 16.9593 40.1967 17.002C40.1967 17.0387 40.2137 17.0697 40.2482 17.0951C40.2944 17.1291 40.4548 17.1775 40.7289 17.2395C41.0031 17.3016 41.1946 17.3776 41.3037 17.4677C41.4108 17.5591 41.4647 17.6862 41.4647 17.8493C41.4647 18.0271 41.3904 18.1799 41.2414 18.3076C41.0921 18.4354 40.8715 18.4994 40.5796 18.4994C40.3145 18.4994 40.1049 18.4457 39.9503 18.3387C39.7956 18.2316 39.6945 18.0861 39.647 17.9023Z" fill="#10298E"/>
<path d="M45.4704 18.4572H44.8802L44.6459 17.8491H43.572L43.35 18.4572H42.7749L43.821 15.7803H44.3948L45.4704 18.4572ZM44.4718 17.3981L44.1016 16.4047L43.7387 17.3981H44.4718Z" fill="#10298E"/>
<path d="M46.3601 18.4557H45.8452V16.5164H46.3236V16.7922C46.4053 16.6618 46.4789 16.5761 46.5442 16.5347C46.6095 16.4933 46.6838 16.4727 46.7668 16.4727C46.8843 16.4727 46.9971 16.505 47.1059 16.5694L46.9466 17.0167C46.8595 16.961 46.7792 16.933 46.7045 16.933C46.6326 16.933 46.5713 16.9527 46.5214 16.9924C46.4712 17.0317 46.4317 17.1034 46.4029 17.2068C46.3745 17.3103 46.3601 17.5271 46.3601 17.8566V18.4557Z" fill="#10298E"/>
<path d="M48.567 17.8386L49.0802 17.9244C49.0142 18.1118 48.9101 18.2546 48.7679 18.3527C48.6252 18.4507 48.4472 18.4998 48.2336 18.4998C47.8951 18.4998 47.6447 18.3894 47.482 18.1692C47.3538 17.9927 47.2896 17.7699 47.2896 17.5007C47.2896 17.1795 47.3739 16.9276 47.5426 16.7455C47.711 16.5637 47.9246 16.4727 48.182 16.4727C48.4716 16.4727 48.7002 16.5681 48.8676 16.7585C49.035 16.949 49.115 17.2409 49.1076 17.6342H47.8175C47.8212 17.7863 47.8627 17.9047 47.942 17.9894C48.0213 18.0738 48.1204 18.1162 48.2389 18.1162C48.3196 18.1162 48.3876 18.0941 48.4425 18.0504C48.4974 18.0068 48.5389 17.936 48.567 17.8386ZM48.5965 17.3199C48.5928 17.1715 48.5543 17.0584 48.481 16.9814C48.4076 16.904 48.3183 16.8653 48.2132 16.8653C48.101 16.8653 48.0079 16.9063 47.9346 16.9877C47.8613 17.0691 47.8255 17.1802 47.8265 17.3199H48.5965Z" fill="#10298E"/>
<path d="M50.0245 17.1081L49.5575 17.024C49.6097 16.8366 49.7004 16.6978 49.8286 16.6078C49.9568 16.5177 50.1473 16.4727 50.4004 16.4727C50.6297 16.4727 50.8008 16.4997 50.9136 16.554C51.0257 16.6081 51.1047 16.6768 51.1506 16.7602C51.1965 16.8436 51.2192 16.9967 51.2192 17.2195L51.2139 17.8183C51.2139 17.9891 51.2222 18.1145 51.2386 18.1955C51.255 18.2763 51.2858 18.3633 51.3314 18.4557H50.8219C50.8081 18.4217 50.7917 18.371 50.7723 18.3043C50.7636 18.2739 50.7576 18.2536 50.7539 18.2439C50.6659 18.329 50.5718 18.393 50.4717 18.4357C50.3716 18.4784 50.2648 18.4994 50.151 18.4994C49.9505 18.4994 49.7928 18.4454 49.6773 18.337C49.5618 18.2286 49.5039 18.0918 49.5039 17.926C49.5039 17.8166 49.5304 17.7189 49.5829 17.6331C49.6355 17.5474 49.7088 17.4817 49.8039 17.4357C49.8983 17.3903 50.0348 17.3503 50.2133 17.3163C50.454 17.2712 50.6207 17.2292 50.7134 17.1902V17.1391C50.7134 17.0404 50.6893 16.9703 50.6401 16.9283C50.5912 16.8863 50.4991 16.8653 50.3636 16.8653C50.2722 16.8653 50.2005 16.8833 50.149 16.9193C50.0978 16.955 50.0563 17.018 50.0245 17.1081ZM50.7134 17.5244C50.6474 17.5464 50.5433 17.5724 50.4004 17.6031C50.2575 17.6335 50.1637 17.6632 50.1199 17.6925C50.0526 17.7399 50.0191 17.8003 50.0191 17.8733C50.0191 17.945 50.0459 18.0071 50.0998 18.0595C50.1533 18.1118 50.2216 18.1378 50.305 18.1378C50.3977 18.1378 50.4864 18.1075 50.5705 18.0468C50.6331 18.0004 50.6739 17.9437 50.6936 17.877C50.7067 17.833 50.7134 17.7496 50.7134 17.6268V17.5244Z" fill="#10298E"/>
<path d="M11.4321 5.26071H7.91139C7.91139 4.68496 7.84344 4.29869 7.70819 4.10188C7.49863 3.811 6.9205 3.66523 5.97413 3.66523C5.05488 3.66523 4.44562 3.74896 4.14835 3.91675C3.85108 4.0852 3.70212 4.45113 3.70212 5.01453C3.70212 5.52456 3.83401 5.8608 4.09814 6.02158C4.28728 6.136 4.53734 6.20305 4.84867 6.22306L5.5587 6.2731C7.08052 6.3735 8.0309 6.44455 8.40985 6.48491C9.61331 6.60567 10.4857 6.92456 11.027 7.44126C11.4528 7.84455 11.7069 8.37159 11.7879 9.02206C11.8355 9.41134 11.8589 9.85198 11.8589 10.3413C11.8589 11.4695 11.7508 12.2954 11.5348 12.8188C11.1428 13.7795 10.2621 14.3862 8.89191 14.6411C8.31779 14.7488 7.43971 14.8025 6.25835 14.8025C4.28661 14.8025 2.91275 14.6858 2.13678 14.4506C1.18472 14.1627 0.556707 13.5793 0.253079 12.701C0.0836901 12.212 0 11.3974 0 10.2573H3.52067C3.52067 10.3844 3.52101 10.4818 3.52101 10.5488C3.52101 11.1573 3.69642 11.5482 4.04692 11.7227C4.28962 11.8427 4.58253 11.9058 4.927 11.9135H6.22152C6.882 11.9135 7.30347 11.8798 7.48524 11.8121C7.80896 11.6853 8.02153 11.4811 8.12296 11.1986C8.17686 11.0245 8.20364 10.7997 8.20364 10.5241C8.20364 9.90736 7.97767 9.53209 7.52642 9.39733C7.35736 9.34429 6.57269 9.2699 5.17138 9.17617C4.04591 9.09611 3.26425 9.01906 2.82672 8.94434C1.67414 8.72952 0.905862 8.28753 0.522561 7.61672C0.185457 7.04698 0.0170728 6.1847 0.0170728 5.03088C0.0170728 4.15258 0.108128 3.44808 0.290237 2.91837C0.472347 2.38832 0.765932 1.98603 1.17099 1.71084C1.76452 1.2882 2.52409 1.04036 3.44837 0.966307C4.21765 0.899259 5.07095 0.865234 6.00962 0.865234C7.48725 0.865234 8.54041 0.949962 9.16808 1.11775C10.7003 1.52804 11.4662 2.67686 11.4662 4.56488C11.4662 4.71965 11.4548 4.95115 11.4321 5.26071Z" fill="#10298E"/>
<path d="M26.9141 14.8014V0.790039H32.4299H33.2956H33.9648C34.9319 0.790039 35.6697 0.868428 36.1769 1.02587C37.3365 1.3878 38.1145 2.12933 38.5132 3.24946C38.7187 3.83755 38.8218 4.72285 38.8218 5.90502C38.8218 7.32637 38.7077 8.34743 38.4817 8.96954C38.0295 10.1991 37.0988 10.9076 35.6932 11.0911C35.5278 11.1187 34.8245 11.1431 33.5828 11.1631L32.9548 11.1838H30.6985V14.8014H26.9141ZM30.6985 7.93347H33.0576C33.8058 7.90678 34.2607 7.84941 34.4244 7.75968C34.648 7.63726 34.7983 7.39175 34.873 7.02382C34.9209 6.77898 34.9446 6.41472 34.9446 5.93104C34.9446 5.33828 34.8971 4.89897 34.8017 4.6121C34.6658 4.21015 34.3397 3.96564 33.8235 3.87657C33.7211 3.86323 33.4767 3.85589 33.0894 3.85589H30.6985V7.93347Z" fill="#10298E"/>
<path d="M46.9003 12.38H41.8404L41.1605 14.8014H37.2451L41.4701 0.790039H47.1788L51.4554 14.8014H47.6224L46.9003 12.38ZM46.1487 9.65036L44.3755 3.57669L42.6548 9.65036H46.1487Z" fill="#10298E"/>
<path d="M21.6907 2.75974C23.2514 2.75974 24.6447 3.47625 25.5602 4.59838L26.376 2.85547C25.1003 1.65395 23.3639 0.913086 21.4487 0.913086C18.4667 0.913086 15.9158 2.7077 14.869 5.24818H13.2782L12.3389 7.25461H14.3853C14.3699 7.44074 14.3598 7.62688 14.3598 7.81701C14.3598 8.04684 14.3719 8.27434 14.3946 8.49883H13.3662L12.4272 10.5059H14.9179C15.9945 12.982 18.5135 14.7203 21.4487 14.7203C22.928 14.7203 24.3005 14.2786 25.437 13.5241V11.0643C24.5218 12.1027 23.1831 12.7589 21.6907 12.7589C19.9463 12.7589 18.4118 11.8626 17.5183 10.5059H22.7332L23.6725 8.49883H16.751C16.7152 8.25733 16.6961 8.01048 16.6961 7.75897C16.6961 7.58885 16.7048 7.42073 16.7216 7.25461H24.2547L25.1937 5.24818H17.3727C18.2377 3.76078 19.8472 2.75974 21.6907 2.75974Z" fill="#FFBE00"/>
<path d="M21.6907 2.81928C23.1781 2.81928 24.5714 3.48175 25.5134 4.63591L25.5743 4.71063L25.6155 4.62356L26.431 2.88065L26.449 2.84096L26.4179 2.81094C25.0768 1.54804 23.312 0.852539 21.4487 0.852539C19.9935 0.852539 18.5935 1.27617 17.3995 2.07775C16.2335 2.86031 15.339 3.94875 14.8134 5.22466L14.869 5.1873H13.2782H13.2394L13.2233 5.22199L12.2843 7.22876L12.2441 7.31448H12.3389H14.3853L14.325 7.2491C14.3079 7.45759 14.2996 7.64272 14.2996 7.81651C14.2996 8.04167 14.3113 8.2735 14.3344 8.50433L14.3946 8.43829H13.3663H13.3281L13.312 8.47298L12.3724 10.4797L12.3325 10.5655H12.4273H14.9179L14.8623 10.5291C15.9851 13.1113 18.5704 14.7798 21.4487 14.7798C22.8915 14.7798 24.2818 14.3632 25.4705 13.574L25.497 13.5563V13.5236V11.0638V10.904L25.3915 11.0241C24.4539 12.0879 23.1051 12.6977 21.6907 12.6977C20.027 12.6977 18.4861 11.8654 17.5685 10.4721L17.5183 10.5655H22.7332H22.772L22.7881 10.5311L23.7274 8.52368L23.7676 8.43829H23.6725H16.751L16.8109 8.48966C16.7751 8.24648 16.7567 8.00097 16.7567 7.75847C16.7567 7.59335 16.7651 7.4259 16.7818 7.26011L16.7216 7.31448H24.2547H24.2935L24.3096 7.27979L25.2486 5.27303L25.2891 5.1873H25.1937H17.3727L17.4249 5.2777C18.3067 3.76128 19.9416 2.81928 21.6907 2.81928ZM17.3727 5.30772H25.1937L25.1388 5.22199L24.2001 7.22876L24.2547 7.19407H16.7216H16.667L16.661 7.24844C16.6442 7.41789 16.6359 7.58968 16.6359 7.75847C16.6359 8.00664 16.6546 8.25882 16.6911 8.50734L16.6991 8.55871H16.751H23.6725L23.618 8.47298L22.679 10.4797L22.7332 10.4451H17.5183H17.4061L17.4677 10.5378C18.4074 11.9661 19.9865 12.8177 21.6907 12.8177C23.1396 12.8177 24.5218 12.1933 25.4826 11.1035L25.3765 11.0638V13.5236L25.4032 13.4739C24.2346 14.2494 22.8674 14.6594 21.4487 14.6594C18.6183 14.6594 16.0768 13.0192 14.9734 10.4811L14.9574 10.4451H14.9179H12.4273L12.4825 10.5311L13.4212 8.52368L13.3663 8.55871H14.3946H14.4613L14.4549 8.49232C14.4321 8.2655 14.4201 8.03767 14.4201 7.81651C14.4201 7.64639 14.4285 7.46392 14.4455 7.25911L14.4509 7.19407H14.3853H12.3389L12.3934 7.27979L13.3328 5.27303L13.2782 5.30772H14.869H14.9095L14.9246 5.27036C15.4418 4.01646 16.3209 2.94703 17.4671 2.17748C18.6407 1.38992 20.0179 0.973292 21.4487 0.973292C23.2812 0.973292 25.0159 1.65678 26.3345 2.89867L26.3212 2.82928L25.506 4.57253L25.6074 4.55985C24.6417 3.37734 23.2146 2.69886 21.6907 2.69886C19.8981 2.69886 18.224 3.66388 17.3201 5.21732L17.2676 5.30772H17.3727Z" fill="#FFBE00"/>
</svg>
