<svg width="64" height="23" viewBox="0 0 64 23" fill="none" xmlns="http://www.w3.org/2000/svg">
<g clip-path="url(#clip0_611_4230)">
<path d="M11.2912 0.5C9.14924 0.5 7.07024 1.13768 5.30624 2.34928C3.54224 3.56087 2.15624 5.28261 1.33724 7.25942C0.518237 9.3 0.329237 11.4681 0.707237 13.6362C1.08524 15.8043 2.09324 17.7174 3.60524 19.2478C5.11724 20.7783 7.07024 21.8623 9.14924 22.2449C11.2282 22.6913 13.4332 22.4362 15.3862 21.6072C17.3392 20.7783 19.0402 19.3754 20.2372 17.5261C21.4342 15.7406 22.0642 13.5725 22.0642 11.4043C22.0642 8.47101 20.9302 5.66522 18.9142 3.62464C16.8982 1.64783 14.1262 0.5 11.2912 0.5ZM1.21124 11.9145H4.55024C4.55024 13.4449 4.80224 14.9754 5.24324 16.442H2.47124C1.71524 15.0391 1.27424 13.4449 1.21124 11.9145ZM11.6692 5.79275V1.32899C13.5592 1.52029 15.1972 3.24203 16.2052 5.79275H11.6692ZM16.4572 6.55797C16.8982 8.02464 17.1502 9.55507 17.2132 11.0855H11.6692V6.55797H16.4572ZM10.8502 1.32899V5.79275H6.31424C7.32224 3.24203 9.02324 1.52029 10.8502 1.32899ZM10.8502 6.55797V11.0855H5.30624C5.30624 9.55507 5.55824 8.02464 6.06224 6.55797H10.8502ZM4.55024 11.0855H1.21124C1.27424 9.49131 1.71524 7.96087 2.47124 6.55797H5.24324C4.80224 8.02464 4.61324 9.55507 4.55024 11.0855ZM5.30624 11.9145H10.8502V16.442H6.06224C5.62124 14.9754 5.36924 13.4449 5.30624 11.9145ZM10.8502 17.2072V21.671C8.96024 21.4797 7.32224 19.758 6.31424 17.2072H10.8502ZM11.6692 21.671V17.1435H16.2052C15.1972 19.758 13.5592 21.4797 11.6692 21.671ZM11.6692 16.3783V11.8507H17.2132C17.2132 13.3812 16.9612 14.9116 16.4572 16.3783H11.6692ZM17.9692 11.9145H21.3082C21.2452 13.5087 20.8042 15.0391 20.0482 16.442H17.2762C17.7172 14.9116 17.9692 13.4449 17.9692 11.9145ZM17.9692 11.0855C17.9692 9.55507 17.7172 8.02464 17.2762 6.55797H20.0482C20.8042 7.96087 21.2452 9.49131 21.3082 11.0855H17.9692ZM19.6072 5.79275H17.0242C16.7722 5.0913 16.4572 4.45362 16.0792 3.81594C15.6382 3.05072 15.1342 2.41304 14.5042 1.83913C16.5832 2.54058 18.3472 3.94348 19.6072 5.79275ZM8.01524 1.83913C7.44824 2.41304 6.88124 3.05072 6.44024 3.81594C6.06224 4.45362 5.74724 5.0913 5.49524 5.79275H2.91224C4.17224 3.94348 5.93624 2.54058 8.01524 1.83913ZM2.91224 17.2072H5.49524C5.74724 17.9087 6.06224 18.5464 6.44024 19.1841C6.88124 19.8855 7.38524 20.587 8.01524 21.1609C5.93624 20.4594 4.17224 19.0565 2.91224 17.2072ZM14.5042 21.1609C15.1342 20.587 15.6382 19.9493 16.0792 19.1841C16.4572 18.5464 16.7722 17.8449 17.0242 17.2072H19.6072C18.3472 19.0565 16.5832 20.4594 14.5042 21.1609ZM51.8002 8.34348H50.0362V18.1638H51.8002V8.34348ZM50.9182 7.00435C51.5482 7.00435 52.1152 6.4942 52.1152 5.79275C52.1152 5.0913 51.6112 4.58116 50.9182 4.58116C50.2882 4.58116 49.7212 5.0913 49.7212 5.79275C49.7212 6.4942 50.2882 7.00435 50.9182 7.00435ZM55.3912 10.958H57.9742V9.42754H55.3912V8.02464C55.3912 7.00435 56.0842 6.43044 57.2812 6.43044H57.9742V4.64493H57.2812C55.0132 4.64493 53.6272 5.92029 53.6272 7.96087V18.2275H55.3912V10.958ZM62.7622 18.2275H63.4552V16.442H62.7622C61.5652 16.442 60.8722 15.8681 60.8722 14.8478V10.958H63.4552V9.42754H60.8722V4.64493H59.1082V14.9116C59.1082 16.8884 60.4942 18.1638 62.7622 18.2275ZM40.4602 18.2275L42.2242 10.8942L43.9882 18.2275H46.0042L48.7132 8.40725H46.8862L44.9962 15.9319L43.1692 8.40725H41.2162L39.3892 15.9319L37.4992 8.40725H35.7352L38.4442 18.2275H40.4602ZM30.8842 16.5696C29.3722 16.5696 28.1122 15.613 27.6712 14.6565L26.0332 15.5493C26.7892 17.271 28.6792 18.4188 30.8212 18.4188C33.5932 18.4188 35.5462 16.8246 35.5462 14.529C35.5462 9.23623 28.1752 11.4681 28.1752 8.40725C28.1752 7.06812 29.3092 6.43044 30.8842 6.43044C32.1442 6.43044 33.2782 7.13188 33.9712 8.02464L35.3572 6.81304C34.4122 5.47391 32.7112 4.7087 30.8842 4.7087C28.0492 4.7087 26.2852 6.4942 26.2852 8.40725C26.2852 13.5725 33.7192 11.0217 33.7192 14.5928C33.7192 15.7406 32.5852 16.5696 30.8842 16.5696Z" fill="#333D3E"/>
</g>
<defs>
<clipPath id="clip0_611_4230">
<rect width="63" height="22" fill="white" transform="translate(0.455078 0.5)"/>
</clipPath>
</defs>
</svg>
