<svg width="104" height="24" viewBox="0 0 104 24" fill="none" xmlns="http://www.w3.org/2000/svg">
<path d="M22.3336 19.8174H18.3018L20.8236 3.81738H24.8552L22.3336 19.8174Z" fill="url(#paint0_linear_649_3084)"/>
<path d="M36.9492 4.20853C36.1539 3.88479 34.8926 3.52734 33.3329 3.52734C29.3513 3.52734 26.5476 5.70596 26.5304 8.82071C26.4973 11.1188 28.5378 12.3952 30.0639 13.1614C31.6238 13.9444 32.154 14.4555 32.154 15.1534C32.1382 16.2253 30.8936 16.7194 29.7328 16.7194C28.1231 16.7194 27.2606 16.4646 25.9498 15.8683L25.4189 15.6126L24.8547 19.2043C25.8004 19.6464 27.5426 20.0386 29.3513 20.0558C33.5818 20.0558 36.336 17.9109 36.3687 14.5917C36.3847 12.7703 35.3073 11.3746 32.9843 10.2342C31.5742 9.50212 30.7106 9.00849 30.7106 8.25943C30.7271 7.57848 31.441 6.881 33.0329 6.881C34.3436 6.84684 35.3066 7.17013 36.0362 7.49364L36.4008 7.66354L36.9492 4.20853Z" fill="url(#paint1_linear_649_3084)"/>
<path d="M42.308 14.1492C42.64 13.23 43.9177 9.67249 43.9177 9.67249C43.9009 9.70665 44.2491 8.73634 44.4482 8.14067L44.7299 9.51933C44.7299 9.51933 45.4934 13.3492 45.6592 14.1492C45.0291 14.1492 43.1044 14.1492 42.308 14.1492ZM47.2848 3.81738H44.1662C43.2044 3.81738 42.4738 4.10651 42.0589 5.14491L36.0701 19.8172H40.3006C40.3006 19.8172 40.997 17.8424 41.1467 17.4171C41.6109 17.4171 45.7263 17.4171 46.3233 17.4171C46.4391 17.9788 46.8044 19.8172 46.8044 19.8172H50.5375L47.2848 3.81738Z" fill="url(#paint2_linear_649_3084)"/>
<path d="M14.934 3.81738L10.9855 14.7279L10.554 12.5151C9.82403 9.96183 7.53461 7.18778 4.97974 5.80845L8.59642 19.8004H12.86L19.1973 3.81738H14.934Z" fill="url(#paint3_linear_649_3084)"/>
<path d="M7.31908 3.81738H0.832232L0.765869 4.14067C5.82601 5.46842 9.17725 8.66892 10.5541 12.5158L9.14396 5.16233C8.9118 4.14044 8.19834 3.85109 7.31908 3.81738Z" fill="#FAA61A"/>
<path d="M90.3343 21.0641H80.2017V2.52295H90.3343V21.0641Z" fill="#FF5F00"/>
<path d="M80.8509 11.7917C80.8509 8.03059 82.5804 4.68026 85.2738 2.52118C83.3042 0.942347 80.8185 -3.34668e-06 78.117 -3.34668e-06C71.7216 -3.34668e-06 66.5374 5.27926 66.5374 11.7917C66.5374 18.3042 71.7216 23.5835 78.117 23.5835C80.8185 23.5835 83.3042 22.6411 85.2738 21.0623C82.5804 18.9032 80.8509 15.5529 80.8509 11.7917Z" fill="#EB001B"/>
<path d="M104 11.7917C104 18.3042 98.8157 23.5835 92.4202 23.5835C89.7187 23.5835 87.233 22.6411 85.2627 21.0623C87.9568 18.9032 89.6863 15.5529 89.6863 11.7917C89.6863 8.03059 87.9568 4.68026 85.2627 2.52118C87.233 0.942347 89.7187 -3.34668e-06 92.4202 -3.34668e-06C98.8157 -3.34668e-06 104 5.27926 104 11.7917Z" fill="#F79E1B"/>
<path d="M75.251 11.8664C75.251 11.3513 75.5825 10.9282 76.1242 10.9282C76.6418 10.9282 76.9912 11.3331 76.9912 11.8664C76.9912 12.3997 76.6418 12.8046 76.1242 12.8046C75.5825 12.8046 75.251 12.3815 75.251 11.8664ZM77.5812 11.8664V10.4012H76.9554V10.757C76.7569 10.4931 76.4557 10.3275 76.0464 10.3275C75.2393 10.3275 74.6067 10.9717 74.6067 11.8664C74.6067 12.7618 75.2393 13.4053 76.0464 13.4053C76.4557 13.4053 76.7569 13.2397 76.9554 12.9758V13.3316H77.5812V11.8664ZM98.7281 11.8664C98.7281 11.3513 99.0596 10.9282 99.6013 10.9282C100.12 10.9282 100.468 11.3331 100.468 11.8664C100.468 12.3997 100.12 12.8046 99.6013 12.8046C99.0596 12.8046 98.7281 12.3815 98.7281 11.8664ZM101.059 11.8664V9.22444H100.432V10.757C100.234 10.4931 99.9328 10.3275 99.5235 10.3275C98.7164 10.3275 98.0837 10.9717 98.0837 11.8664C98.0837 12.7618 98.7164 13.4053 99.5235 13.4053C99.9328 13.4053 100.234 13.2397 100.432 12.9758V13.3316H101.059V11.8664ZM85.349 10.898C85.7522 10.898 86.0113 11.1556 86.0775 11.6089H84.584C84.6508 11.1857 84.9031 10.898 85.349 10.898ZM85.3614 10.3275C84.5178 10.3275 83.9279 10.9528 83.9279 11.8664C83.9279 12.7983 84.542 13.4053 85.4034 13.4053C85.8369 13.4053 86.2339 13.2951 86.5833 12.9948L86.2766 12.5225C86.0354 12.7183 85.728 12.8292 85.4393 12.8292C85.0361 12.8292 84.6688 12.639 84.5785 12.1113H86.7156C86.7218 12.032 86.728 11.952 86.728 11.8664C86.7218 10.9528 86.1677 10.3275 85.3614 10.3275ZM92.9176 11.8664C92.9176 11.3513 93.2491 10.9282 93.7908 10.9282C94.3084 10.9282 94.6578 11.3331 94.6578 11.8664C94.6578 12.3997 94.3084 12.8046 93.7908 12.8046C93.2491 12.8046 92.9176 12.3815 92.9176 11.8664ZM95.2478 11.8664V10.4012H94.622V10.757C94.4228 10.4931 94.1223 10.3275 93.7129 10.3275C92.9059 10.3275 92.2732 10.9717 92.2732 11.8664C92.2732 12.7618 92.9059 13.4053 93.7129 13.4053C94.1223 13.4053 94.4228 13.2397 94.622 12.9758V13.3316H95.2478V11.8664ZM89.3835 11.8664C89.3835 12.7555 89.9913 13.4053 90.919 13.4053C91.3525 13.4053 91.6412 13.307 91.9541 13.0558L91.6537 12.5408C91.4186 12.7127 91.1719 12.8046 90.9004 12.8046C90.4007 12.7983 90.0334 12.4306 90.0334 11.8664C90.0334 11.3022 90.4007 10.9345 90.9004 10.9282C91.1719 10.9282 91.4186 11.0201 91.6537 11.1921L91.9541 10.677C91.6412 10.4258 91.3525 10.3275 90.919 10.3275C89.9913 10.3275 89.3835 10.9773 89.3835 11.8664ZM97.4518 10.3275C97.0906 10.3275 96.8556 10.4995 96.693 10.757V10.4012H96.0727V13.3316H96.6992V11.6889C96.6992 11.204 96.9039 10.9345 97.3132 10.9345C97.4401 10.9345 97.5724 10.9528 97.7047 11.0082L97.8977 10.4075C97.7591 10.3521 97.5786 10.3275 97.4518 10.3275ZM80.6763 10.6342C80.3751 10.4321 79.9602 10.3275 79.5026 10.3275C78.7735 10.3275 78.3041 10.6833 78.3041 11.2657C78.3041 11.7436 78.6536 12.0383 79.2973 12.1303L79.5929 12.1731C79.9361 12.2222 80.0981 12.3141 80.0981 12.4797C80.0981 12.7064 79.8693 12.8355 79.442 12.8355C79.0085 12.8355 78.6956 12.6944 78.4847 12.5288L78.1897 13.0249C78.5329 13.2825 78.9664 13.4053 79.4358 13.4053C80.2669 13.4053 80.7487 13.0067 80.7487 12.4488C80.7487 11.9338 80.3696 11.6643 79.7432 11.5724L79.4482 11.5289C79.1773 11.4924 78.9602 11.4377 78.9602 11.2412C78.9602 11.0265 79.1649 10.898 79.5081 10.898C79.8755 10.898 80.2311 11.0391 80.4055 11.1493L80.6763 10.6342ZM88.7508 10.3275C88.3897 10.3275 88.1547 10.4995 87.9927 10.757V10.4012H87.3724V13.3316H87.9982V11.6889C87.9982 11.204 88.2029 10.9345 88.6123 10.9345C88.7391 10.9345 88.8714 10.9528 89.0037 11.0082L89.1967 10.4075C89.0582 10.3521 88.8776 10.3275 88.7508 10.3275ZM83.4103 10.4012H82.3869V9.51215H81.7542V10.4012H81.1705V10.9836H81.7542V12.3204C81.7542 13.0004 82.0133 13.4053 82.7535 13.4053C83.0251 13.4053 83.3379 13.3197 83.5364 13.1786L83.3559 12.6327C83.1691 12.7429 82.9644 12.7983 82.8018 12.7983C82.4889 12.7983 82.3869 12.6018 82.3869 12.3078V10.9836H83.4103V10.4012ZM74.0532 13.3316V11.4924C74.0532 10.7998 73.6197 10.3339 72.9209 10.3275C72.5536 10.3212 72.1745 10.4377 71.9092 10.8489C71.7107 10.524 71.3978 10.3275 70.9581 10.3275C70.6507 10.3275 70.3503 10.4195 70.1152 10.7626V10.4012H69.4888V13.3316H70.1208V11.7071C70.1208 11.1984 70.3978 10.9282 70.8258 10.9282C71.2414 10.9282 71.4516 11.204 71.4516 11.7008V13.3316H72.0842V11.7071C72.0842 11.1984 72.373 10.9282 72.7886 10.9282C73.2159 10.9282 73.4206 11.204 73.4206 11.7008V13.3316H74.0532Z" fill="white"/>
<defs>
<linearGradient id="paint0_linear_649_3084" x1="24.8552" y1="3.81738" x2="16.3707" y2="4.91694" gradientUnits="userSpaceOnUse">
<stop stop-color="#000756"/>
<stop offset="1" stop-color="#0042B8"/>
</linearGradient>
<linearGradient id="paint1_linear_649_3084" x1="36.9492" y1="3.52734" x2="21.838" y2="7.02595" gradientUnits="userSpaceOnUse">
<stop stop-color="#000756"/>
<stop offset="1" stop-color="#0042B8"/>
</linearGradient>
<linearGradient id="paint2_linear_649_3084" x1="50.5375" y1="3.81738" x2="32.9335" y2="8.85394" gradientUnits="userSpaceOnUse">
<stop stop-color="#000756"/>
<stop offset="1" stop-color="#0042B8"/>
</linearGradient>
<linearGradient id="paint3_linear_649_3084" x1="19.1973" y1="3.81738" x2="1.85502" y2="8.6985" gradientUnits="userSpaceOnUse">
<stop stop-color="#000756"/>
<stop offset="1" stop-color="#0042B8"/>
</linearGradient>
</defs>
</svg>
